<svg width="514" height="61" viewBox="0 0 514 61" fill="none" xmlns="http://www.w3.org/2000/svg">
<g clip-path="url(#clip0_27_52)">
<path d="M131.906 33.4693V38.4632H112.705V17.7691H130.994V22.4774H118.058L118.086 25.6377H125.613C126.958 25.6929 128.018 26.7802 128.018 28.1254C128.018 29.4706 126.958 30.5854 125.613 30.6315H118.086V33.4786H131.906V33.4693Z" fill="#56AA9F"/>
<path d="M132.883 30.4565C131.869 30.4565 131.031 29.36 131.031 28.024C131.031 26.688 131.869 25.5916 132.883 25.5916H142.401C143.442 25.5916 144.253 26.688 144.253 28.024C144.253 29.36 143.451 30.4565 142.401 30.4565H132.883Z" fill="#56AA9F"/>
<path d="M151.716 17.8152H158.727C160.072 17.8152 161.187 18.9024 161.187 20.2753C161.187 21.6481 160.072 22.7077 158.727 22.7077H153.475V38.3895H148.482V22.7077H142.999C141.627 22.7077 140.567 21.6205 140.567 20.2753C140.567 18.9301 141.627 17.8152 142.999 17.8152H151.716Z" fill="#263868"/>
<path d="M182.582 38.4171C182.093 38.8594 181.467 39.0897 180.849 39.0897C180.232 39.0897 179.606 38.8594 179.117 38.4171L170.558 29.8299C169.857 29.1297 169.627 28.0701 170.014 27.1671C170.401 26.2642 171.286 25.6653 172.262 25.6653H176.685C177.514 25.6653 178.187 24.9927 178.187 24.1911C178.187 23.3895 177.514 22.6893 176.685 22.6893H167.913V38.4448H162.947V17.7968H176.814C180.251 17.8705 183.079 20.6991 183.079 24.1911C183.079 27.2409 180.905 29.7838 178.03 30.4012L182.582 34.9527C183.54 35.911 183.54 37.4589 182.582 38.4171Z" fill="#263868"/>
<path d="M206.408 28.2175V38.5369H201.442V35.3582H195.204C195.131 35.3582 195.048 35.3858 194.974 35.3858C193.601 35.3858 192.486 34.2433 192.486 32.8797C192.486 31.516 193.518 30.4749 194.817 30.392H201.442V28.2175C201.442 25.2691 199.037 22.8643 196.089 22.8643C193.141 22.8643 190.736 25.2691 190.736 28.2175V38.5185H185.742V28.2175C185.742 22.4958 190.376 17.8705 196.089 17.8705C201.801 17.8705 206.408 22.505 206.408 28.2175Z" fill="#263868"/>
<path d="M209.145 38.4909V20.3029C209.145 19.3447 209.716 18.4694 210.591 18.0824C211.476 17.6678 212.535 17.8244 213.227 18.497L225.822 30.6315V17.8521H230.714V36.1137C230.714 37.0719 230.143 37.9472 229.268 38.3342C228.383 38.6936 227.324 38.5646 226.633 37.9196L214.028 25.7851V38.4909H209.136H209.145Z" fill="#263868"/>
<path d="M252.947 31.9951C252.947 35.5609 250.072 38.4355 246.507 38.4355H234.114V33.5983H246.507C247.391 33.5983 248.11 32.8705 248.11 31.9951C248.11 31.1198 247.382 30.4196 246.507 30.4196H246.479L243.761 30.392H239.384C235.92 30.392 233.101 27.5449 233.101 24.0805C233.101 20.6162 235.763 17.8981 239.126 17.7415H248.727C250.045 17.7415 251.132 18.8287 251.132 20.1739C251.132 21.5191 250.045 22.6063 248.727 22.6063H239.384C238.583 22.6063 237.938 23.2513 237.938 24.0805C237.938 24.9098 238.583 25.5271 239.384 25.5271H243.807L246.525 25.5824C250.072 25.61 252.938 28.4571 252.938 31.9951H252.947Z" fill="#263868"/>
<path d="M275.456 24.1358C275.456 27.6555 272.581 30.5302 269.062 30.5302H264.612C263.266 30.5302 262.179 29.4153 262.179 28.0701C262.179 26.7249 263.266 25.61 264.612 25.61H269.062C269.863 25.61 270.536 24.9651 270.536 24.1358C270.536 23.3066 269.863 22.6616 269.062 22.6616H260.235V38.4448H255.269V17.7507H270.066C273.116 17.7507 275.447 20.9571 275.447 24.145L275.456 24.1358Z" fill="#263868"/>
<path d="M276.516 27.7568C276.516 21.7034 281.408 16.7833 287.434 16.7833C293.46 16.7833 298.408 21.7034 298.408 27.7568C298.408 33.8103 293.488 38.6751 287.434 38.6751C281.381 38.6751 276.516 33.7826 276.516 27.7568ZM281.307 27.7568C281.307 31.1198 284.053 33.884 287.434 33.884C290.816 33.884 293.561 31.1198 293.561 27.7568C293.561 24.3938 290.816 21.6297 287.434 21.6297C284.053 21.6297 281.307 24.3754 281.307 27.7568Z" fill="#263868"/>
<path d="M320.493 38.4171C320.005 38.8594 319.378 39.0897 318.761 39.0897C318.143 39.0897 317.517 38.8594 317.028 38.4171L308.469 29.8299C307.769 29.1297 307.538 28.0701 307.925 27.1671C308.312 26.2642 309.197 25.6653 310.173 25.6653H314.596C315.425 25.6653 316.098 24.9927 316.098 24.1911C316.098 23.3895 315.425 22.6893 314.596 22.6893H305.825V38.4448H300.858V17.7968H314.725C318.162 17.8705 320.99 20.6991 320.99 24.1911C320.99 27.2409 318.816 29.7838 315.941 30.4012L320.493 34.9527C321.451 35.911 321.451 37.4589 320.493 38.4171Z" fill="#263868"/>
<path d="M333.53 17.8152H340.542C341.887 17.8152 343.002 18.9024 343.002 20.2753C343.002 21.6481 341.887 22.7077 340.542 22.7077H335.29V38.3895H330.296V22.7077H324.814C323.441 22.7077 322.382 21.6205 322.382 20.2753C322.382 18.9301 323.441 17.8152 324.814 17.8152H333.53Z" fill="#263868"/>
<path d="M363.954 33.4693V38.4632H344.753V17.7691H363.042V22.4774H350.106L350.133 25.6377H357.661C359.006 25.6929 360.066 26.7802 360.066 28.1254C360.066 29.4706 359.006 30.5854 357.661 30.6315H350.133V33.4786H363.945L363.954 33.4693Z" fill="#263868"/>
<path d="M385.275 36.0123C385.275 37.3852 384.16 38.5001 382.787 38.5001H374.918C369.197 38.5001 364.571 33.8655 364.571 28.153C364.571 22.4405 369.206 17.806 374.918 17.806H382.732V22.7998H374.918C371.942 22.7998 369.538 25.2046 369.538 28.153C369.538 31.1014 371.942 33.5338 374.918 33.5338H382.787C384.16 33.5338 385.275 34.6487 385.275 36.0216V36.0123Z" fill="#263868"/>
<path d="M506.896 36.0123C506.896 37.3852 505.781 38.5001 504.408 38.5001H496.54C490.818 38.5001 486.193 33.8655 486.193 28.153C486.193 22.4405 490.827 17.806 496.54 17.806H504.353V22.7998H496.54C493.564 22.7998 491.159 25.2046 491.159 28.153C491.159 31.1014 493.564 33.5338 496.54 33.5338H504.408C505.781 33.5338 506.896 34.6487 506.896 36.0216V36.0123Z" fill="#263868"/>
<path d="M407.342 38.4908H402.375V30.6223H391.669V38.4908H386.675V20.1186C386.749 18.8287 387.836 17.7876 389.163 17.7876C390.49 17.7876 391.568 18.8195 391.651 20.1186H391.678V25.6561H402.385V20.2016C402.44 18.8564 403.527 17.7968 404.872 17.7968C406.218 17.7968 407.305 18.8564 407.36 20.2016V38.4908H407.342Z" fill="#263868"/>
<path d="M447.956 31.9951C447.956 35.5609 445.081 38.4355 441.515 38.4355H429.123V33.5983H441.515C442.4 33.5983 443.118 32.8705 443.118 31.9951C443.118 31.1198 442.391 30.4196 441.515 30.4196H441.488L438.77 30.392H434.393C430.929 30.392 428.109 27.5449 428.109 24.0805C428.109 20.6162 430.772 17.8981 434.135 17.7415H443.736C445.053 17.7415 446.141 18.8287 446.141 20.1739C446.141 21.5191 445.053 22.6063 443.736 22.6063H434.393C433.591 22.6063 432.946 23.2513 432.946 24.0805C432.946 24.9098 433.591 25.5271 434.393 25.5271H438.816L441.534 25.5824C445.081 25.61 447.946 28.4571 447.946 31.9951H447.956Z" fill="#263868"/>
<path d="M452.305 38.5185C450.932 38.5185 449.845 37.4589 449.845 36.0861C449.845 34.7132 450.932 33.6536 452.305 33.6536C453.678 33.6536 454.737 34.7408 454.737 36.0861C454.737 37.4313 453.65 38.5185 452.305 38.5185Z" fill="#263868"/>
<path d="M478.278 28.2175V38.5369H473.312V35.3582H467.074C467 35.3582 466.917 35.3858 466.844 35.3858C465.471 35.3858 464.356 34.2433 464.356 32.8797C464.356 31.516 465.388 30.4749 466.687 30.392H473.312V28.2175C473.312 25.2691 470.907 22.8643 467.959 22.8643C465.01 22.8643 462.605 25.2691 462.605 28.2175V38.5185H457.612V28.2175C457.612 22.4958 462.246 17.8705 467.959 17.8705C473.671 17.8705 478.278 22.505 478.278 28.2175Z" fill="#263868"/>
<path d="M483.576 38.5185C482.203 38.5185 481.116 37.4589 481.116 36.0861C481.116 34.7132 482.203 33.6536 483.576 33.6536C484.949 33.6536 486.008 34.7408 486.008 36.0861C486.008 37.4313 484.921 38.5185 483.576 38.5185Z" fill="#263868"/>
<path d="M510.895 38.5185C509.522 38.5185 508.435 37.4589 508.435 36.0861C508.435 34.7132 509.522 33.6536 510.895 33.6536C512.268 33.6536 513.327 34.7408 513.327 36.0861C513.327 37.4313 512.24 38.5185 510.895 38.5185Z" fill="#263868"/>
<path d="M62.1305 7.70774V22.4589C62.1305 26.6143 62.1305 30.7697 62.1305 34.9343C62.1305 35.2937 62.0844 35.5056 61.6421 35.5056C56.6852 35.4964 51.7282 35.4872 46.762 35.524C46.0064 35.524 45.4536 35.3029 44.9008 34.8238C44.1545 34.1696 43.316 33.5983 42.2933 33.497C41.4364 33.4049 40.5611 33.4417 39.7042 33.3496C39.1422 33.2943 38.5709 33.1745 38.055 32.9626C36.8848 32.4743 35.7239 32.29 34.48 32.6401C32.4254 33.2206 31.2368 34.6487 30.5274 36.5652C30.3247 37.1088 30.2325 37.6892 30.0759 38.2881C29.8179 38.2881 29.5876 38.2881 29.348 38.2881C26.2983 38.3158 23.2485 38.3434 20.1988 38.3803C19.6459 38.3803 19.2405 38.841 19.2774 39.4306C19.3142 40.1125 19.6275 40.5086 20.208 40.5271C20.6502 40.5271 21.0925 40.5271 21.5347 40.5271C24.2252 40.5271 26.9156 40.5271 29.6152 40.5271C29.7718 40.5271 30.0298 40.6008 30.0759 40.7114C30.2509 41.126 30.3615 41.5682 30.5089 42.0566H29.8916C20.9819 42.0566 12.063 42.0566 3.15334 42.0566C2.42546 42.0566 1.68836 42.1118 0.960472 42.1487C0.822266 42.1487 0.665632 42.2224 0.555068 42.2961C0.232587 42.5172 0.140449 42.8766 0.287869 43.1898C0.435289 43.5031 0.674846 43.7887 1.13553 43.7887C4.10236 43.7703 7.06918 43.7887 10.036 43.7887C17.2964 43.7887 24.5569 43.7887 31.8173 43.7887C31.9923 43.7887 32.2503 43.7795 32.3332 43.8809C33.2638 45.005 34.4616 45.6776 35.8898 45.7605C37.4653 45.8526 39.0501 45.8065 40.6348 45.7973C40.8283 45.7973 41.0126 45.696 41.2061 45.6407C42.8922 45.1432 43.9149 43.9362 44.6336 42.4159C44.7902 42.0842 44.9745 41.9368 45.3523 41.9368C53.8565 41.946 62.3608 41.946 70.8651 41.9368C71.2244 41.9368 71.4456 42.0381 71.6298 42.3698C72.3762 43.7242 73.5094 44.6364 74.9376 45.2169C76.0709 45.6776 77.2594 45.6407 78.4388 45.6131C80.1065 45.5854 81.4517 44.8575 82.5113 43.5953C82.889 43.1438 83.1009 42.4435 83.5616 42.2132C84.0592 41.9644 84.7594 42.1303 85.3767 42.1579C85.5334 42.1579 85.7453 42.2869 85.8282 42.4251C86.3073 43.1438 86.7772 43.844 87.4959 44.3692C89.0899 45.5301 90.8497 45.8158 92.7201 45.2998C94.2956 44.8667 95.4197 43.8348 96.2305 42.4251C96.3042 42.2869 96.5254 42.1671 96.682 42.1579C97.1519 42.1211 97.6218 42.1487 98.1193 42.1487C98.1193 41.7525 98.1193 41.43 98.1193 41.1168C98.1193 41.0338 98.1101 40.8864 98.0733 40.8772C97.6771 40.7758 97.8153 40.4534 97.8153 40.223C97.8061 38.841 97.8153 37.4589 97.8153 36.0861C97.8153 35.9478 97.8521 35.7636 97.7876 35.6899C97.3454 35.2107 97.5297 34.6303 97.5204 34.0959C97.4928 32.9073 97.4467 31.7095 97.5204 30.521C97.5665 29.7194 97.2256 29.2587 96.5899 28.8533C95.0235 27.8674 93.4848 26.8447 91.9553 25.8127C91.725 25.6561 91.5039 25.4073 91.4117 25.1493C90.9418 23.8226 90.5088 22.4866 90.0573 21.1506C89.7256 20.1647 89.4953 19.1236 89.0162 18.2206C88.104 16.5161 86.6667 15.2906 84.999 14.3232C83.2484 13.3097 81.2766 12.9227 79.3878 12.3238C77.37 11.6881 75.2693 11.3011 73.2238 10.7575C70.128 9.93747 67.0414 9.07137 63.9456 8.22371C63.3651 8.06708 62.7939 7.90123 62.1489 7.71696L62.1305 7.70774ZM50.9174 22.5234C50.7792 22.6709 50.6133 22.8459 50.4567 23.021C50.125 23.3895 49.7564 23.5646 49.2312 23.5554C46.9647 23.5185 44.6981 23.5277 42.4315 23.5554C42.192 23.5554 41.8879 23.6659 41.7128 23.8318C40.3676 25.0664 39.0593 26.3471 37.6956 27.5541C37.281 27.9227 36.977 28.4663 36.2583 28.4663C26.8695 28.4479 17.4807 28.4571 8.09191 28.4387C7.83392 28.4387 7.53908 28.3281 7.32716 28.1807C6.6822 27.72 6.09252 27.72 5.32778 28.2544C4.94081 28.5216 4.70125 29.3324 4.85788 29.8576C5.18958 30.9909 6.16623 31.3963 7.25345 30.8711C7.50223 30.7513 7.78785 30.6407 8.05505 30.6407C10.5888 30.6407 13.1318 30.696 15.6656 30.696C22.9721 30.7052 30.2878 30.696 37.5943 30.696C37.8154 30.696 38.0826 30.5762 38.2485 30.4288C39.0409 29.7378 39.824 29.0375 40.5611 28.2912C41.3719 27.4896 42.2196 26.8723 43.4542 27.1119C43.6109 27.1395 43.8596 26.9737 43.9794 26.8262C44.8363 25.8127 46.1262 25.8588 46.9186 26.9184C47.0107 27.0474 47.2687 27.1119 47.4438 27.1211C48.5034 27.1395 49.5537 27.1303 50.6133 27.1211C51.1201 27.1211 51.5623 27.1764 51.9401 26.5867C52.3916 25.868 53.6999 25.9049 54.2988 26.513C54.9714 27.1948 54.953 28.4018 54.2619 29.0099C53.5709 29.618 52.4837 29.4982 51.8572 28.7796C51.7374 28.6414 51.5347 28.5031 51.3688 28.5031C49.9868 28.5031 48.6139 28.5308 47.2319 28.5584C47.1213 28.5584 46.9647 28.6229 46.9094 28.7059C46.1723 29.7562 44.8639 29.8115 44.0531 28.8348C43.961 28.7151 43.8136 28.5861 43.6846 28.5676C43.141 28.5124 42.5974 28.5031 42.238 29.0652C42.1275 29.2402 41.8971 29.3416 41.7405 29.489C41.3535 29.8668 40.9665 30.2538 40.5611 30.6684H57.0906V11.5038C57.0169 11.4854 56.9708 11.4669 56.9247 11.4669C54.4739 11.4669 52.0138 11.4669 49.5629 11.4669C49.3879 11.4669 49.1852 11.5867 49.047 11.7065C48.3283 12.333 47.6281 12.978 46.9094 13.6137C46.4303 14.0376 45.9051 14.2864 45.2233 14.2679C44.219 14.2403 43.2147 14.3048 42.2104 14.3048C36.6913 14.314 31.1723 14.3232 25.6441 14.3232C25.1097 14.3232 24.7319 14.6641 24.7043 15.1617C24.6674 15.7605 24.9807 16.1567 25.5519 16.1752C26.5562 16.212 27.5605 16.2397 28.5648 16.2304C31.9371 16.212 35.3093 16.1752 38.6815 16.166C41.4456 16.1567 44.2005 16.166 46.9647 16.166C47.1305 16.166 47.3516 16.1844 47.453 16.0922C47.9413 15.6592 48.4481 15.2354 48.8443 14.7286C49.3787 14.0376 50.0881 13.7059 50.9634 13.8994C51.5807 14.0376 52.1428 14.572 52.2073 15.1432C52.3086 16.037 52.0783 16.5345 51.378 16.9399C50.7054 17.3269 49.9038 17.2808 49.4432 16.8201C49.1483 16.5253 48.918 16.5069 48.6416 16.8201C48.4941 16.986 48.3007 17.115 48.1717 17.2808C47.9229 17.6125 47.6188 17.7139 47.2042 17.7139C44.9192 17.6954 42.6342 17.7139 40.3492 17.6954C39.824 17.6954 39.4002 17.7876 39.0409 18.2022C38.6262 18.6813 38.1103 18.8656 37.4377 18.8472C35.3093 18.7919 33.1809 18.8195 31.0433 18.8287C30.2602 18.8287 29.477 18.8748 28.6938 18.9209C28.2239 18.9485 28.012 19.271 27.9659 19.6948C27.8922 20.2937 28.3621 20.8465 28.9702 20.8557C29.7718 20.8742 30.5734 20.8557 31.375 20.8557C33.5771 20.8557 35.77 20.865 37.9721 20.8834C38.1563 20.8834 38.3406 20.9663 38.5249 21.0124C38.4696 21.2151 38.4696 21.4546 38.359 21.6021C37.8615 22.247 37.3087 22.8551 36.8019 23.5001C36.5624 23.8134 36.2952 23.9331 35.8898 23.9331C30.8498 23.9239 25.8007 23.9331 20.7608 23.9331C20.5397 23.9331 20.3185 23.9331 20.0974 23.9423C19.5354 23.9884 19.0563 24.4952 19.0747 25.0204C19.0931 25.4903 19.563 25.8957 20.1158 25.9141C20.9819 25.9417 21.848 25.9786 22.7233 25.9786C26.5562 25.9786 30.3892 25.9786 34.2221 25.9786C34.867 25.9786 35.512 25.9786 36.157 25.9233C36.4518 25.8957 36.8111 25.8312 37.023 25.6469C37.9813 24.8177 38.9303 23.97 39.8148 23.067C40.5888 22.2839 41.418 21.9245 42.5513 21.9798C44.7073 22.072 46.8817 22.0075 49.047 21.9982C49.222 21.9982 49.4708 21.9982 49.5722 21.8877C50.0144 21.4086 50.7054 21.1414 50.8805 20.4043C50.9266 20.2108 51.1016 20.0173 51.2675 19.8883C51.9677 19.3447 52.8062 19.271 53.6262 19.7317C54.1882 20.0449 54.5107 20.9939 54.3541 21.7403C54.1145 22.8459 53.1747 23.454 52.0967 23.1315C51.7097 23.021 51.3596 22.763 50.9174 22.5234ZM33.7982 48.3772C38.3314 55.7758 47.711 62.2254 60.1587 60.8157C68.5248 59.8667 74.7809 55.3888 79.4339 48.3772C77.5727 48.3772 75.8221 48.3772 74.0715 48.3864C73.8964 48.3864 73.6937 48.5154 73.5647 48.6444C72.7078 49.5197 71.8694 50.4134 71.0125 51.2887C70.7637 51.5467 70.4597 51.7494 70.1004 52.0442V44.2863C69.9253 44.2863 69.7871 44.2863 69.6581 44.2863C62.7109 44.2863 55.7546 44.2863 48.8074 44.2863C48.1809 44.2863 47.5543 44.36 46.9462 44.489C44.5783 44.9865 42.8922 47.465 43.0028 49.6026C43.0396 50.3397 43.0028 51.0768 43.0028 51.8139C42.9475 51.8508 42.883 51.8784 42.8277 51.9153C41.8234 50.8925 40.8099 49.8882 39.8332 48.8471C39.5384 48.5338 39.2804 48.3311 38.8105 48.3495C37.7694 48.3956 36.7282 48.3588 35.6963 48.3588H33.7982V48.3772ZM60.8958 8.40798H60.1864C55.128 8.40798 50.0605 8.40798 45.0021 8.40798C44.5875 8.40798 44.2835 8.52776 43.961 8.80418C43.5832 9.13587 43.1133 9.55049 42.6618 9.56892C40.6256 9.65184 38.5802 9.61499 36.5347 9.61499C28.528 9.61499 20.5212 9.63341 12.5053 9.61499C12.1644 9.61499 11.805 9.47678 11.4733 9.34779C10.8929 9.11744 10.3124 9.0898 9.77802 9.41228C8.97642 9.90061 8.81058 10.9602 9.32655 11.7157C9.84252 12.4805 11.2061 12.4712 11.6853 11.9829C11.9617 11.6973 12.2381 11.6696 12.579 11.6696C23.6723 11.6696 34.7657 11.6696 45.859 11.6696C46.1723 11.6696 46.5408 11.5683 46.7988 11.4024C47.1858 11.1445 47.4806 10.7575 47.8584 10.4811C48.0887 10.3152 48.3928 10.1586 48.66 10.1586C51.7742 10.1402 54.8977 10.1586 58.0119 10.131C58.4911 10.131 58.6477 10.2415 58.6477 10.7483C58.6293 17.8152 58.6385 24.8914 58.6385 31.9583V32.5664H44.0347C44.8455 33.2666 45.5365 33.8932 46.2552 34.4829C46.3934 34.5934 46.6238 34.6303 46.8172 34.6395C47.1029 34.6487 47.3885 34.5934 47.6741 34.5934C50.2263 34.5934 52.7877 34.6119 55.34 34.6211C56.9063 34.6211 58.4726 34.5934 60.039 34.6395C60.8774 34.6579 60.8774 34.7132 60.8774 33.8748C60.8774 33.7918 60.8774 33.7089 60.8774 33.6168C60.8774 27.2409 60.8774 20.8742 60.8774 14.4983C60.8774 12.4897 60.8774 10.4903 60.8774 8.40798H60.8958ZM29.993 6.26118H30.684C36.2675 6.26118 41.8603 6.26118 47.4438 6.26118C47.8768 6.26118 48.3099 6.15983 48.7337 6.07691C50.6778 5.69915 52.6035 5.14632 54.5568 4.98969C56.7865 4.81463 59.0531 4.82384 61.3012 5.22925C63.9548 5.70836 66.4517 6.59288 68.8934 7.69853C69.1421 7.80909 69.437 7.89202 69.7042 7.90123C71.7312 7.91966 73.7582 7.90123 75.7852 7.90123H76.2736C76.1999 7.6801 76.0801 7.56954 75.9511 7.46818C74.3018 6.15062 72.6065 4.92519 70.773 3.87483C67.3823 1.93994 63.7429 0.806652 59.8639 0.465744C58.2239 0.318324 56.5562 0.364392 54.9069 0.465744C53.3682 0.557881 51.8203 0.760583 50.3185 1.07385C47.3148 1.7096 44.5046 2.88896 41.8603 4.44608C41.3904 4.72249 40.8652 5.05419 40.3584 5.08183C38.0181 5.19239 35.6686 5.16475 33.3283 5.2661C32.2135 5.31217 31.1078 5.57015 29.993 6.2704V6.26118ZM10.5335 15.1524C7.76021 15.1524 4.98688 15.1524 2.21354 15.1524C2.02005 15.1524 1.80814 15.1893 1.64229 15.2906C1.26453 15.5302 1.10789 15.908 1.21846 16.341C1.34745 16.8478 1.78971 17.1887 2.25961 17.1887C7.30874 17.161 12.3671 17.1334 17.4162 17.1058C17.9137 17.1058 18.4021 17.1242 18.8996 17.0965C19.4524 17.0597 19.7381 16.6266 19.7012 15.954C19.6736 15.3828 19.4248 15.1432 18.8628 15.1432C16.0894 15.1432 13.3161 15.1432 10.5428 15.1432L10.5335 15.1524ZM6.42422 24.5597C8.19326 24.5597 9.96229 24.5597 11.7313 24.5597C12.3671 24.5597 12.7356 24.1819 12.7356 23.5646C12.7356 22.8828 12.3947 22.5142 11.7498 22.5142C8.27618 22.5142 4.81181 22.5142 1.33824 22.5142C1.23688 22.5142 1.13553 22.5142 1.03418 22.5142C0.527426 22.5695 0.16809 23.0302 0.186518 23.583C0.204945 24.1266 0.61035 24.5505 1.11711 24.5505C2.88614 24.5505 4.65518 24.5505 6.42422 24.5505V24.5597ZM20.2448 18.9946C20.2448 18.9946 20.2448 19.0222 20.2448 19.0406C18.9365 19.0406 17.6281 19.0406 16.3198 19.0406C16.1908 19.0406 16.0249 19.0406 15.942 19.1236C15.6011 19.4368 15.3984 19.8054 15.5458 20.2937C15.6932 20.7728 15.9512 21.0953 16.5133 21.0861C17.6558 21.0677 18.7983 21.0861 19.9316 21.0861C21.3413 21.0861 22.751 21.0861 24.1699 21.04C24.4186 21.04 24.7043 20.911 24.8885 20.7452C25.2295 20.4411 25.3124 20.0265 25.1097 19.5842C24.9162 19.1604 24.5661 19.0038 24.1238 19.0038C22.8339 19.0038 21.5347 19.0038 20.2448 19.0038V18.9946ZM30.5826 32.9718C30.5826 32.9718 30.5366 32.8797 30.5181 32.8336C28.8228 32.8336 27.1275 32.8336 25.4229 32.8336C23.8935 32.8336 22.3548 32.8336 20.8253 32.8336C20.1895 32.8336 19.8763 33.1745 19.8855 33.8195C19.8947 34.5105 20.1527 34.7777 20.8161 34.7777C23.3222 34.7777 25.8191 34.7777 28.3253 34.7777C28.4819 34.7777 28.6938 34.7777 28.7952 34.6856C29.4033 34.1327 29.9837 33.5523 30.5734 32.9718H30.5826ZM13.4819 36.1045C12.5237 36.1045 11.5747 36.1045 10.6165 36.1045C10.4138 36.1045 10.2019 36.0768 10.0084 36.1229C9.53846 36.2427 9.19755 36.7863 9.26205 37.2562C9.33576 37.7998 9.7688 38.2236 10.3308 38.2236C12.4039 38.2236 14.4862 38.2052 16.5593 38.1684C17.1582 38.1591 17.536 37.68 17.5083 37.0811C17.4807 36.4362 17.1306 36.1045 16.4856 36.1045C15.4813 36.1045 14.477 36.1045 13.4727 36.1045H13.4819ZM15.3615 26.1997C16.2 26.1997 16.7989 25.693 16.7712 24.9651C16.7436 24.2188 16.1355 23.7028 15.509 23.7304C14.6889 23.7673 14.173 24.1727 14.1638 24.8821C14.1638 25.7943 14.5231 26.1905 15.3523 26.1997H15.3615ZM1.2461 30.7052C1.94634 30.7052 2.60052 30.18 2.60052 29.6272C2.60052 28.8625 2.03848 28.2452 1.34745 28.2452C0.619564 28.2452 0.0667394 28.7796 0.0575256 29.5074C0.0575256 30.2169 0.53664 30.7052 1.2461 30.7144V30.7052Z" fill="white"/>
<path d="M62.1305 7.70774C62.7755 7.89201 63.3467 8.05786 63.9272 8.21449C67.0138 9.06216 70.1004 9.91903 73.2054 10.7483C75.2509 11.2919 77.3516 11.6881 79.3694 12.3146C81.2582 12.9043 83.23 13.3005 84.9806 14.314C86.6575 15.2814 88.0948 16.4976 88.9978 18.2114C89.4769 19.1143 89.7072 20.1555 90.0389 21.1414C90.4904 22.4681 90.9142 23.8134 91.3933 25.1401C91.4855 25.3981 91.7066 25.6469 91.937 25.8035C93.4664 26.8355 95.0051 27.8582 96.5715 28.8441C97.2072 29.2495 97.5481 29.7009 97.5021 30.5117C97.4376 31.7003 97.4836 32.8981 97.5021 34.0867C97.5113 34.6211 97.327 35.2015 97.7693 35.6806C97.843 35.7544 97.7969 35.9478 97.7969 36.0768C97.7969 37.4589 97.7969 38.841 97.7969 40.2138C97.7969 40.4534 97.6495 40.7666 98.0549 40.868C98.0917 40.868 98.101 41.0246 98.101 41.1075C98.101 41.43 98.101 41.7525 98.101 42.1395C97.6034 42.1395 97.1335 42.121 96.6636 42.1487C96.507 42.1579 96.2858 42.2777 96.2121 42.4159C95.4013 43.8164 94.2773 44.8483 92.7017 45.2906C90.8313 45.8065 89.0807 45.5301 87.4775 44.36C86.7588 43.8348 86.2797 43.1346 85.8098 42.4159C85.7177 42.2777 85.515 42.1579 85.3584 42.1487C84.7502 42.121 84.0408 41.9644 83.5432 42.204C83.0826 42.4343 82.8706 43.1346 82.4929 43.586C81.4333 44.8483 80.0881 45.5762 78.4204 45.6038C77.2411 45.6223 76.0525 45.6683 74.9192 45.2076C73.4911 44.6272 72.3486 43.715 71.6115 42.3606C71.4272 42.0289 71.2061 41.9276 70.8467 41.9276C62.3424 41.9276 53.8382 41.9276 45.3339 41.9276C44.9469 41.9276 44.7718 42.075 44.6152 42.4067C43.8965 43.9269 42.8738 45.1339 41.1877 45.6315C40.9942 45.6868 40.8099 45.7881 40.6164 45.7881C39.0317 45.7881 37.4469 45.8434 35.8714 45.7513C34.434 45.6683 33.2454 44.9865 32.3149 43.8717C32.2319 43.7703 31.974 43.7795 31.7989 43.7795C24.5385 43.7795 17.278 43.7795 10.0176 43.7795C7.05079 43.7795 4.08397 43.7795 1.11715 43.7795C0.65646 43.7795 0.416902 43.4939 0.269483 43.1806C0.122063 42.8674 0.2142 42.508 0.536681 42.2869C0.65646 42.204 0.803879 42.1487 0.942085 42.1395C1.66997 42.0934 2.40707 42.0473 3.13495 42.0473C12.0446 42.0473 20.9635 42.0473 29.8732 42.0473H30.4905C30.3431 41.559 30.2326 41.1168 30.0575 40.7021C30.0114 40.5916 29.7534 40.5179 29.5968 40.5179C26.9064 40.5086 24.216 40.5179 21.5164 40.5179C21.0741 40.5179 20.6318 40.5179 20.1896 40.5179C19.5999 40.5086 19.2866 40.1125 19.259 39.4214C19.2314 38.8225 19.6275 38.3803 20.1804 38.3711C23.2301 38.3342 26.2799 38.3066 29.3296 38.2789C29.5692 38.2789 29.7995 38.2789 30.0575 38.2789C30.2141 37.68 30.3155 37.0996 30.509 36.556C31.2184 34.6395 32.407 33.2114 34.4617 32.6309C35.7055 32.2808 36.8665 32.4651 38.0366 32.9534C38.5526 33.1653 39.1238 33.2851 39.6859 33.3404C40.5427 33.4325 41.418 33.3956 42.2749 33.4878C43.2976 33.5983 44.1361 34.1604 44.8824 34.8146C45.426 35.2937 45.988 35.524 46.7436 35.5148C51.7006 35.4779 56.6576 35.4872 61.6238 35.4964C62.066 35.4964 62.1121 35.2937 62.1121 34.9251C62.1121 30.7697 62.1121 26.6143 62.1121 22.4497V7.70774H62.1305ZM89.5137 24.9559C89.523 24.8637 89.5414 24.8176 89.5322 24.79C89.0531 23.3435 88.5832 21.8969 88.0948 20.4595C88.058 20.3674 87.8737 20.2753 87.7539 20.2661C86.897 20.1831 86.0402 20.1002 85.1741 20.0634C83.4787 19.9804 81.7926 19.9252 80.0973 19.8514C79.8301 19.8422 79.5629 19.7777 79.2957 19.7685C78.66 19.7593 78.0242 19.7685 77.3332 19.7685C77.757 21.3901 78.1901 22.9288 78.5678 24.4952C78.66 24.8821 78.8074 24.9743 79.1759 24.9743C81.5254 24.9559 83.8749 24.9651 86.2244 24.9651C87.3117 24.9651 88.3989 24.9651 89.5137 24.9651V24.9559ZM73.3713 38.6383C73.3529 39.4398 73.5832 40.1769 74.007 40.8403C75.0113 42.4159 76.7343 42.7752 78.015 41.7249C79.7656 40.2783 80.042 37.7261 78.5402 35.9571C77.4253 34.6487 75.6379 34.6026 74.4401 35.8373C73.6845 36.6112 73.3989 37.5879 73.3805 38.6475L73.3713 38.6383ZM39.0317 38.7672C39.0317 37.4865 38.6171 36.6297 37.668 35.8189C36.4887 34.7961 34.8118 35.1739 33.9549 36.2519C32.7848 37.7169 32.7479 39.6886 33.8259 41.2273C34.7565 42.5725 36.4979 42.9134 37.7602 41.7249C38.6263 40.9141 39.0225 39.9282 39.0317 38.7672ZM89.5598 35.1002C89.6612 35.5148 89.9744 35.6991 90.4535 35.6991C91.9185 35.6991 93.3835 35.6991 94.8485 35.6991C95.4474 35.6991 95.8528 35.349 95.8712 34.7501C95.8989 33.6168 95.8989 32.4743 95.8712 31.341C95.8528 30.6592 95.4105 30.2906 94.7195 30.2906C93.3374 30.2906 91.9554 30.3551 90.5825 30.263C89.7994 30.2169 89.3295 30.8711 89.523 31.6819H95.3276C95.475 32.1702 95.3276 32.3361 94.8761 32.3084C94.4892 32.29 94.093 32.3268 93.706 32.3268C92.4069 32.3268 91.1169 32.3084 89.8178 32.3084C89.4677 32.3084 89.4677 32.3268 89.5137 32.7322H90.0666C91.6882 32.7322 93.3006 32.7322 94.9222 32.7322C95.4013 32.7322 95.3921 32.7323 95.3 33.2482H89.4769V33.755C89.6704 33.755 89.8362 33.755 90.0021 33.755C91.5961 33.7273 93.1992 33.6905 94.7932 33.6536C95.1618 33.6536 95.5027 33.6905 95.3368 34.2617H89.4492C89.4677 34.446 89.4769 34.5934 89.4861 34.7316C89.7349 34.7132 89.9468 34.6856 90.1679 34.6856C91.7895 34.6856 93.4019 34.6763 95.0236 34.6856C95.1433 34.6856 95.2631 34.8053 95.3829 34.8791C95.2815 35.0173 95.1894 35.1739 95.0604 35.2752C94.9867 35.3305 94.8301 35.2937 94.7103 35.2937C93.4112 35.2937 92.1212 35.3121 90.8221 35.2937C90.4259 35.2937 90.0205 35.1831 89.5782 35.1186L89.5598 35.1002ZM76.3289 26.4485C76.3289 26.4485 76.3289 26.513 76.3289 26.5498C77.0568 26.7986 77.7847 27.0382 78.5033 27.3054C80.0512 27.8766 81.6176 28.411 83.1194 29.0744C84.2803 29.5904 85.3952 30.2538 86.464 30.954C86.7865 31.1659 87.026 31.6819 87.0813 32.0873C87.1919 32.852 87.155 33.6444 87.1735 34.4276C87.1735 34.7777 87.1735 35.1278 87.1735 35.4595H88.1225C88.1225 33.7642 88.1225 32.1149 88.1225 30.4657C88.1225 30.3367 88.0395 30.1616 87.9382 30.0879C86.851 29.314 85.7361 28.5861 84.437 28.2175C82.7969 27.7568 81.1477 27.2961 79.4892 26.9184C78.4573 26.6788 77.3885 26.5959 76.3289 26.4393V26.4485ZM79.996 12.7661C79.996 12.7661 79.996 12.6832 79.996 12.6371C75.297 11.642 70.5519 11.7986 65.7976 12.0843C69.6489 12.6371 73.2515 13.7427 76.3105 16.2673C76.0801 15.908 75.8498 15.5578 75.6194 15.1985C75.7576 15.2261 75.8406 15.2999 75.9327 15.3644C76.0156 15.4196 76.1078 15.4657 76.1999 15.521C75.1956 13.8717 73.7583 12.8306 71.9155 12.3238L79.9867 12.7661H79.996ZM69.1514 38.712C69.2251 38.2329 69.2988 37.7445 69.3909 37.1088C69.0869 37.4958 68.8565 37.7353 68.6907 38.0117C68.5248 38.3066 68.3129 38.3803 67.9812 38.3711C66.8572 38.3158 65.7331 38.2605 64.6182 38.2605C61.4671 38.2789 58.3252 38.325 55.1741 38.3618C54.7687 38.3618 54.3541 38.3895 53.9487 38.4356C53.6539 38.4724 53.1656 38.3803 53.2024 38.8225C53.23 39.2279 53.6907 39.1542 54.004 39.1542C56.9155 39.1634 59.8271 39.2003 62.7386 39.1542C64.8762 39.1266 67.0414 39.4214 69.1514 38.7028V38.712ZM96.424 38.0209C96.424 37.9564 96.4148 37.9012 96.4056 37.8367C92.8491 37.8367 89.2926 37.8367 85.7361 37.8367C85.4597 37.8367 85.1925 37.8274 84.9253 37.8551C84.6581 37.8827 84.4001 37.9472 84.1329 37.9933C84.2066 38.1039 84.2619 38.1315 84.3264 38.1499C85.7822 38.4816 87.238 38.7857 88.6845 39.1542C90.1219 39.5228 91.55 39.7255 93.015 39.3754C94.222 39.0897 95.4105 38.7765 96.4333 38.0301L96.424 38.0209ZM76.6974 24.8453C76.3842 23.5369 76.117 22.376 75.8221 21.2059C75.7761 21.0216 75.6102 20.7452 75.4904 20.736C74.6612 20.6991 73.832 20.7175 72.9843 20.7175V23.4817C74.1821 23.9239 75.3707 24.357 76.6882 24.8453H76.6974Z" fill="#263868"/>
<path d="M50.9174 22.5142C51.3596 22.7446 51.7098 23.0025 52.0967 23.1223C53.1747 23.4356 54.1145 22.8367 54.3541 21.731C54.5107 20.9847 54.1882 20.0357 53.6262 19.7225C52.8062 19.2618 51.9677 19.3447 51.2675 19.8791C51.1017 20.0081 50.9266 20.2016 50.8805 20.3951C50.7147 21.1322 50.0236 21.3994 49.5722 21.8785C49.4708 21.989 49.222 21.989 49.047 21.989C46.8818 21.989 44.7165 22.0627 42.5513 21.9706C41.418 21.9245 40.5796 22.2747 39.8148 23.0578C38.9303 23.9608 37.9813 24.8084 37.0231 25.6377C36.8111 25.8219 36.461 25.8957 36.157 25.9141C35.512 25.9694 34.867 25.9602 34.2221 25.9694C30.3892 25.9694 26.5562 25.9786 22.7233 25.9694C21.8572 25.9694 20.9912 25.9325 20.1158 25.9049C19.563 25.8864 19.0931 25.481 19.0747 25.0111C19.0563 24.4952 19.5262 23.9884 20.0974 23.9331C20.3185 23.9147 20.5397 23.9239 20.7608 23.9239C25.8007 23.9239 30.8499 23.9147 35.8898 23.9239C36.2952 23.9239 36.5624 23.7949 36.8019 23.4909C37.3087 22.8459 37.8523 22.2378 38.359 21.5928C38.4788 21.4454 38.4696 21.2059 38.5249 21.0032C38.3406 20.9571 38.1563 20.8742 37.9721 20.8742C35.77 20.8557 33.5771 20.8557 31.375 20.8465C30.5734 20.8465 29.7718 20.865 28.9702 20.8465C28.3621 20.8373 27.8922 20.2845 27.966 19.6856C28.0212 19.2618 28.2239 18.9393 28.6938 18.9116C29.477 18.8656 30.2602 18.8287 31.0433 18.8195C33.1717 18.8103 35.3001 18.7827 37.4377 18.8379C38.1103 18.8564 38.6262 18.6721 39.0409 18.193C39.4002 17.7784 39.824 17.677 40.3492 17.6862C42.6342 17.7046 44.9192 17.6862 47.2042 17.7046C47.6189 17.7046 47.9229 17.6033 48.1717 17.2716C48.3007 17.0965 48.4942 16.9675 48.6416 16.8109C48.918 16.4976 49.1483 16.5161 49.4432 16.8109C49.9039 17.2716 50.7055 17.3177 51.3781 16.9307C52.0783 16.5253 52.3086 16.0277 52.2073 15.134C52.1428 14.572 51.59 14.0284 50.9634 13.8902C50.0881 13.6967 49.3879 14.0284 48.8443 14.7194C48.4481 15.2261 47.9413 15.65 47.453 16.083C47.3517 16.1752 47.1305 16.1567 46.9647 16.1567C44.2006 16.1567 41.4456 16.1567 38.6815 16.1567C35.3093 16.1752 31.9371 16.212 28.5648 16.2212C27.5605 16.2212 26.5562 16.1936 25.552 16.1659C24.9807 16.1475 24.6674 15.7513 24.7043 15.1524C24.7319 14.6549 25.1097 14.314 25.6441 14.314C31.1631 14.314 36.6821 14.3048 42.2104 14.2956C43.2147 14.2956 44.219 14.2311 45.2233 14.2587C45.8959 14.2771 46.4303 14.0284 46.9094 13.6045C47.6281 12.9688 48.3283 12.3238 49.047 11.6973C49.1852 11.5775 49.3879 11.4577 49.563 11.4577C52.0138 11.4393 54.4739 11.4485 56.9247 11.4577C56.9708 11.4577 57.0169 11.4762 57.0906 11.4946V30.6315H40.5611C40.9665 30.2261 41.3443 29.8391 41.7405 29.4522C41.8971 29.2955 42.1183 29.2034 42.238 29.0283C42.5974 28.4663 43.141 28.4847 43.6846 28.5308C43.8136 28.54 43.961 28.6782 44.0531 28.798C44.8732 29.7746 46.1723 29.7194 46.9094 28.669C46.9739 28.5861 47.1213 28.5216 47.2319 28.5216C48.6139 28.4939 49.9868 28.4663 51.3688 28.4663C51.5347 28.4663 51.7374 28.6045 51.8572 28.7427C52.4745 29.4614 53.5617 29.5719 54.262 28.973C54.9622 28.3649 54.9806 27.1579 54.2988 26.4761C53.6999 25.868 52.3916 25.8312 51.9401 26.5498C51.5623 27.1395 51.1201 27.0842 50.6133 27.0842C49.5537 27.0842 48.5034 27.0934 47.4438 27.0842C47.2595 27.0842 47.0107 27.0105 46.9186 26.8815C46.1262 25.8219 44.8363 25.7759 43.9794 26.7894C43.8596 26.9368 43.6017 27.1027 43.4542 27.075C42.2196 26.8355 41.3719 27.4436 40.5611 28.2544C39.8148 28.9915 39.0317 29.7009 38.2485 30.392C38.0826 30.5394 37.8154 30.6592 37.5943 30.6592C30.2878 30.6684 22.9721 30.6776 15.6656 30.6592C13.1318 30.6592 10.5888 30.6131 8.05506 30.6039C7.78787 30.6039 7.50224 30.7144 7.25347 30.8342C6.16625 31.3594 5.18959 30.954 4.8579 29.8207C4.70126 29.2955 4.94082 28.4847 5.3278 28.2175C6.10175 27.6831 6.68222 27.6831 7.32718 28.1438C7.53909 28.2912 7.83393 28.4018 8.09192 28.4018C17.4807 28.4202 26.8695 28.411 36.2583 28.4294C36.977 28.4294 37.281 27.8858 37.6957 27.5173C39.0593 26.3011 40.3676 25.0204 41.7128 23.7949C41.8879 23.6291 42.192 23.5277 42.4315 23.5185C44.6981 23.5001 46.9647 23.4817 49.2313 23.5185C49.7657 23.5185 50.1342 23.3527 50.4567 22.9841C50.6133 22.8091 50.7792 22.634 50.9174 22.4866V22.5142Z" fill="#56AA9F"/>
<path d="M33.7982 48.368H35.6962C36.7374 48.368 37.7786 48.3956 38.8105 48.3587C39.2804 48.3403 39.5384 48.543 39.8332 48.8563C40.8099 49.8974 41.8234 50.9017 42.8277 51.9245C42.883 51.8876 42.9475 51.86 43.0027 51.8231C43.0027 51.086 43.0396 50.3489 43.0027 49.6118C42.8922 47.4834 44.5783 44.9957 46.9462 44.4982C47.5543 44.3692 48.1901 44.2955 48.8074 44.2955C55.7546 44.2771 62.7109 44.2955 69.6581 44.2955C69.7871 44.2955 69.9253 44.2955 70.1003 44.2955V52.0535C70.4689 51.7586 70.7637 51.5559 71.0125 51.2979C71.8694 50.4226 72.7078 49.5289 73.5647 48.6536C73.6937 48.5246 73.8964 48.3956 74.0715 48.3956C75.8221 48.3772 77.5819 48.3864 79.4339 48.3864C74.7809 55.3888 68.5248 59.8667 60.1587 60.8249C47.711 62.2438 38.3314 55.785 33.7982 48.3864V48.368Z" fill="#56AA9F"/>
<path d="M60.8959 8.39876C60.8959 10.4811 60.8959 12.4897 60.8959 14.489C60.8959 20.8649 60.8959 27.2316 60.8959 33.6075C60.8959 33.6905 60.8959 33.7734 60.8959 33.8655C60.8959 34.704 60.8959 34.6487 60.0574 34.6303C58.4911 34.5934 56.9248 34.6211 55.3584 34.6118C52.8062 34.6118 50.2448 34.5934 47.6926 34.5842C47.407 34.5842 47.1213 34.6395 46.8357 34.6303C46.6422 34.6303 46.4119 34.5934 46.2737 34.4736C45.555 33.884 44.864 33.2574 44.0532 32.5572H58.6569V31.9491C58.6569 24.8821 58.6569 17.806 58.6662 10.7391C58.6662 10.2323 58.5003 10.1125 58.0304 10.1217C54.9162 10.1402 51.7927 10.1217 48.6785 10.1494C48.4021 10.1494 48.098 10.306 47.8769 10.4719C47.4991 10.7483 47.2043 11.1445 46.8173 11.3932C46.5593 11.5683 46.1908 11.6604 45.8775 11.6604C34.7841 11.6696 23.6908 11.6696 12.5975 11.6604C12.2566 11.6604 11.9801 11.6881 11.7037 11.9737C11.2246 12.4712 9.86098 12.4712 9.34501 11.7065C8.83826 10.951 8.99489 9.89139 9.79649 9.40306C10.3309 9.08058 10.9021 9.10822 11.4918 9.33856C11.8235 9.46756 12.1828 9.60576 12.5238 9.60576C20.5305 9.60576 28.5372 9.60576 36.5532 9.60576C38.5986 9.60576 40.6349 9.64262 42.6803 9.55969C43.1226 9.54127 43.6017 9.12665 43.9795 8.79495C44.3019 8.50933 44.606 8.39876 45.0206 8.39876C50.079 8.40798 55.1465 8.39876 60.2048 8.39876H60.9143H60.8959Z" fill="#263868"/>
<path d="M29.9929 6.25196C31.1077 5.55172 32.2134 5.29373 33.3282 5.24767C35.6685 5.14631 38.018 5.17396 40.3583 5.06339C40.8651 5.03575 41.3903 4.70406 41.8602 4.42764C44.5137 2.87052 47.3147 1.69116 50.3184 1.05541C51.8294 0.742148 53.3681 0.539446 54.9068 0.447308C56.5561 0.345957 58.2238 0.309102 59.8638 0.447308C63.7336 0.788217 67.3822 1.92151 70.7729 3.85639C72.6064 4.90676 74.3017 6.13218 75.951 7.44975C76.08 7.5511 76.1998 7.66167 76.2735 7.8828H75.7851C73.7581 7.8828 71.7311 7.8828 69.7041 7.8828C69.4277 7.8828 69.142 7.79987 68.8933 7.68009C66.4516 6.57444 63.9547 5.68993 61.3011 5.21081C59.0622 4.80541 56.7956 4.79619 54.5567 4.97125C52.6034 5.12789 50.6777 5.68993 48.7336 6.05848C48.3098 6.1414 47.8767 6.24275 47.4437 6.24275C41.8602 6.25196 36.2674 6.24275 30.6839 6.24275H29.9929V6.25196Z" fill="#56AA9F"/>
<path d="M10.5336 15.1432C13.307 15.1432 16.0803 15.1432 18.8536 15.1432C19.4157 15.1432 19.6644 15.3828 19.6921 15.954C19.7289 16.6266 19.4433 17.0597 18.8905 17.0965C18.4022 17.1242 17.9046 17.0965 17.4071 17.1058C12.3579 17.1334 7.2996 17.161 2.25048 17.1887C1.77136 17.1887 1.3291 16.8478 1.20932 16.341C1.09876 15.8988 1.25539 15.521 1.63316 15.2906C1.78979 15.1893 2.01092 15.1524 2.20441 15.1524C4.97774 15.1524 7.75108 15.1524 10.5244 15.1524L10.5336 15.1432Z" fill="#56AA9F"/>
<path d="M6.42423 24.5505C4.65519 24.5505 2.88615 24.5505 1.11712 24.5505C0.610362 24.5505 0.204957 24.1266 0.18653 23.583C0.168102 23.021 0.527438 22.5603 1.03419 22.5142C1.13554 22.505 1.2369 22.5142 1.33825 22.5142C4.81183 22.5142 8.27619 22.5142 11.7498 22.5142C12.3947 22.5142 12.7356 22.8736 12.7356 23.5646C12.7356 24.1911 12.3671 24.5597 11.7313 24.5597C9.96231 24.5597 8.19327 24.5597 6.42423 24.5597V24.5505Z" fill="#56AA9F"/>
<path d="M20.2449 18.9853C21.5348 18.9853 22.834 18.9853 24.1239 18.9853C24.5661 18.9853 24.9163 19.142 25.1098 19.5658C25.3125 20.0081 25.2295 20.4135 24.8886 20.7267C24.7043 20.8926 24.4187 21.0124 24.17 21.0216C22.7602 21.0584 21.3505 21.0584 19.9316 21.0677C18.7891 21.0677 17.6466 21.0584 16.5133 21.0677C15.9513 21.0677 15.6933 20.7544 15.5459 20.2753C15.3985 19.7869 15.592 19.4092 15.9421 19.1051C16.025 19.0314 16.1909 19.0222 16.3198 19.0222C17.6282 19.0222 18.9365 19.0222 20.2449 19.0222C20.2449 19.0038 20.2449 18.9946 20.2449 18.9761V18.9853Z" fill="#56AA9F"/>
<path d="M30.5825 32.9718C29.9928 33.5431 29.4124 34.1235 28.8043 34.6856C28.7029 34.7777 28.491 34.7777 28.3344 34.7777C25.8282 34.7777 23.3313 34.7777 20.8252 34.7777C20.1526 34.7777 19.9038 34.5197 19.8946 33.8195C19.8946 33.1745 20.1986 32.8428 20.8344 32.8336C22.3639 32.8336 23.9026 32.8336 25.432 32.8336C27.1274 32.8336 28.8227 32.8336 30.5272 32.8336C30.5457 32.8797 30.5733 32.9257 30.5917 32.9718H30.5825Z" fill="#56AA9F"/>
<path d="M13.4819 36.1045C14.4862 36.1045 15.4905 36.1045 16.4948 36.1045C17.149 36.1045 17.4899 36.4362 17.5175 37.0811C17.5452 37.6892 17.1582 38.1591 16.5685 38.1684C14.4954 38.2052 12.4131 38.2236 10.34 38.2236C9.77799 38.2236 9.34495 37.7998 9.27124 37.2562C9.20674 36.7863 9.54765 36.2427 10.0176 36.1229C10.211 36.0768 10.423 36.1045 10.6257 36.1045C11.5839 36.1045 12.5329 36.1045 13.4911 36.1045H13.4819Z" fill="#56AA9F"/>
<path d="M15.3615 26.1905C14.5231 26.1905 14.1637 25.7851 14.173 24.8729C14.173 24.1635 14.6981 23.7489 15.5182 23.7212C16.1447 23.6936 16.7528 24.2188 16.7805 24.9559C16.8081 25.6837 16.2 26.1905 15.3707 26.1905H15.3615Z" fill="#56AA9F"/>
<path d="M89.5138 24.9559C88.3989 24.9559 87.3117 24.9559 86.2245 24.9559C83.875 24.9559 81.5255 24.9559 79.176 24.9651C78.8075 24.9651 78.66 24.8729 78.5679 24.486C78.1901 22.9288 77.7663 21.3809 77.3333 19.7593C78.0151 19.7593 78.66 19.7593 79.2958 19.7593C79.563 19.7593 79.8302 19.8238 80.0974 19.8422C81.7927 19.9159 83.4788 19.9712 85.1741 20.0541C86.031 20.1002 86.8879 20.1831 87.754 20.2569C87.8738 20.2661 88.0673 20.3582 88.0949 20.4503C88.5832 21.8877 89.0623 23.3342 89.5322 24.7808C89.5415 24.8084 89.5322 24.8453 89.5138 24.9466V24.9559Z" fill="white"/>
<path d="M73.3713 38.6382C73.3897 37.5787 73.6753 36.602 74.4308 35.8281C75.6286 34.6026 77.4161 34.6395 78.531 35.9478C80.042 37.7261 79.7564 40.2783 78.0058 41.7156C76.7343 42.766 75.0021 42.4067 73.9978 40.8311C73.574 40.1677 73.3436 39.4306 73.362 38.629L73.3713 38.6382ZM75.1219 38.712C75.1219 38.7764 75.1219 38.8502 75.1219 38.9147C75.1772 39.578 75.6471 40.1954 76.1815 40.2875C76.6698 40.3796 77.2687 40.0572 77.5082 39.5504C77.8768 38.7764 77.8031 38.0025 77.2963 37.3207C77.0475 36.989 76.6606 36.8323 76.2183 36.9798C75.5273 37.2009 75.1127 37.8366 75.1219 38.7027V38.712Z" fill="white"/>
<path d="M39.0224 38.7672C39.0132 39.9282 38.617 40.9141 37.7509 41.7249C36.4794 42.9134 34.7472 42.5633 33.8167 41.2273C32.7479 39.6886 32.7755 37.7169 33.9457 36.2519C34.8117 35.1739 36.4794 34.7961 37.6588 35.8189C38.6078 36.6389 39.0132 37.4958 39.0224 38.7672ZM36.0095 37.118C35.7331 37.2838 35.4014 37.4036 35.2079 37.634C34.7288 38.1868 34.7104 38.8594 34.9223 39.532C35.0789 40.0203 35.3646 40.3797 35.9542 40.4165C36.5808 40.4534 36.9217 40.1125 37.1705 39.6149C37.4653 39.0068 37.364 38.4171 37.0783 37.8367C36.8756 37.4313 36.5624 37.1733 36.0095 37.1272V37.118Z" fill="white"/>
<path d="M89.5506 35.1002C89.9929 35.1647 90.3891 35.266 90.7945 35.2752C92.0844 35.2937 93.3835 35.2752 94.6827 35.2752C94.8025 35.2752 94.9591 35.3213 95.0328 35.2568C95.1618 35.1555 95.2539 34.9988 95.3553 34.8606C95.2355 34.7961 95.1157 34.6764 94.9959 34.6671C93.3743 34.6579 91.7619 34.6671 90.1403 34.6671C89.9284 34.6671 89.7165 34.6948 89.4585 34.7132C89.4493 34.575 89.4401 34.4276 89.4216 34.2433H95.3092C95.4751 33.6721 95.1342 33.6352 94.7656 33.6352C93.1716 33.6628 91.5684 33.6997 89.9745 33.7366C89.8086 33.7366 89.6428 33.7366 89.4493 33.7366V33.2298H95.2724C95.3737 32.723 95.3737 32.7138 94.8946 32.7138C93.273 32.7138 91.6606 32.7138 90.039 32.7138H89.4861C89.4401 32.3084 89.4401 32.29 89.7902 32.29C91.0893 32.29 92.3792 32.2992 93.6784 32.3084C94.0654 32.3084 94.4615 32.2624 94.8485 32.29C95.3 32.3176 95.4474 32.1426 95.3 31.6635H89.4953C89.3019 30.8527 89.781 30.1985 90.5549 30.2445C91.9278 30.3367 93.3098 30.2722 94.6919 30.2722C95.3829 30.2722 95.8252 30.6407 95.8436 31.3226C95.8805 32.4558 95.8712 33.5983 95.8436 34.7316C95.8344 35.3305 95.4198 35.6807 94.8209 35.6807C93.3559 35.6807 91.8909 35.6807 90.4259 35.6807C89.9468 35.6807 89.6335 35.5056 89.5322 35.0818L89.5506 35.1002ZM95.3276 31.1936C95.3553 31.1383 95.3829 31.0738 95.4106 31.0185C95.2539 30.9079 95.0973 30.7052 94.9407 30.7052C93.3743 30.6776 91.808 30.6776 90.2417 30.7052C90.0021 30.7052 89.6888 30.7789 89.7533 31.2028H95.3276V31.1936Z" fill="white"/>
<path d="M76.3197 26.4485C77.3701 26.6051 78.4389 26.688 79.48 26.9276C81.1385 27.3054 82.7877 27.766 84.4278 28.2267C85.7269 28.5953 86.8418 29.3232 87.929 30.0971C88.0304 30.1708 88.1041 30.3459 88.1133 30.4749C88.1225 32.1241 88.1133 33.7734 88.1133 35.4687H87.1643C87.1643 35.137 87.1643 34.7869 87.1643 34.4368C87.1458 33.6536 87.1919 32.8612 87.0721 32.0965C87.0169 31.6911 86.7773 31.1751 86.4548 30.9632C85.386 30.263 84.2712 29.6088 83.1102 29.0836C81.6084 28.411 80.0421 27.8858 78.4941 27.3146C77.7755 27.0474 77.0476 26.8078 76.3197 26.559C76.3197 26.5222 76.3197 26.4945 76.3197 26.4577V26.4485Z" fill="white"/>
<path d="M79.9868 12.7661L71.9155 12.3238C73.7583 12.8306 75.1956 13.8717 76.1999 15.521C76.1078 15.4657 76.0249 15.4196 75.9327 15.3644C75.8406 15.2999 75.7484 15.2354 75.6195 15.1985C75.8498 15.5578 76.0801 15.908 76.3105 16.2673C73.2515 13.7427 69.6397 12.6371 65.7976 12.0843C70.5519 11.7986 75.297 11.642 79.996 12.6371C79.996 12.6832 79.996 12.72 79.996 12.7661H79.9868Z" fill="white"/>
<path d="M69.1421 38.712C67.0322 39.4306 64.8762 39.1358 62.7294 39.1634C59.8178 39.2003 56.9063 39.1634 53.9948 39.1634C53.6815 39.1634 53.2208 39.2371 53.1932 38.8317C53.1655 38.3895 53.6446 38.4724 53.9395 38.4448C54.3449 38.3987 54.7503 38.371 55.1649 38.371C58.316 38.3342 61.4579 38.2881 64.609 38.2697C65.7331 38.2697 66.8571 38.3158 67.972 38.3803C68.3037 38.3987 68.5064 38.325 68.6815 38.0209C68.8473 37.7353 69.0776 37.4957 69.3817 37.118C69.2896 37.7629 69.2159 38.2421 69.1421 38.7212V38.712Z" fill="white"/>
<path d="M96.4147 38.0209C95.3919 38.7672 94.2034 39.0713 92.9964 39.3661C91.5314 39.7163 90.1032 39.5228 88.6659 39.145C87.2286 38.7765 85.7636 38.4724 84.3078 38.1407C84.2433 38.1223 84.188 38.1039 84.1143 37.9841C84.3815 37.938 84.6395 37.8735 84.9067 37.8459C85.1739 37.8182 85.4503 37.8274 85.7175 37.8274C89.274 37.8274 92.8305 37.8274 96.387 37.8274C96.387 37.8919 96.3962 37.9472 96.4054 38.0117L96.4147 38.0209Z" fill="white"/>
<path d="M76.6883 24.8545C75.3707 24.3662 74.1822 23.9331 72.9844 23.4909V20.7267C73.832 20.7267 74.6613 20.7083 75.4905 20.7452C75.6103 20.7452 75.7761 21.0308 75.8222 21.2151C76.117 22.376 76.3842 23.5462 76.6975 24.8545H76.6883Z" fill="white"/>
<path d="M75.1127 38.712C75.1127 37.8459 75.5273 37.2101 76.2183 36.989C76.6606 36.8508 77.0476 37.0074 77.2963 37.3299C77.8031 38.0117 77.8768 38.7765 77.5082 39.5596C77.2687 40.0664 76.6698 40.3797 76.1815 40.2967C75.6471 40.1954 75.168 39.5873 75.1219 38.9239C75.1219 38.8594 75.1219 38.7857 75.1219 38.7212L75.1127 38.712Z" fill="#263868"/>
<path d="M36.0095 37.1088C36.5715 37.1641 36.8848 37.4128 37.0783 37.8182C37.3547 38.3895 37.4653 38.9884 37.1704 39.5965C36.9217 40.094 36.5807 40.4349 35.9542 40.3981C35.3645 40.3612 35.0789 40.0111 34.9223 39.5136C34.7011 38.841 34.7288 38.1684 35.2079 37.6155C35.4106 37.3852 35.7423 37.2746 36.0095 37.0996V37.1088Z" fill="#263868"/>
<path d="M95.3276 31.1936H89.7533C89.698 30.7697 90.0021 30.696 90.2416 30.696C91.808 30.6776 93.3743 30.696 94.9406 30.696C95.3829 30.696 95.2539 30.8987 95.4105 31.0093C95.3829 31.0646 95.3552 31.1291 95.3276 31.1843V31.1936Z" fill="#263868"/>
<path d="M64.6827 46.3225C59.5414 46.3225 54.3909 46.3225 49.2497 46.3225C47.5728 46.3225 46.6514 47.2347 46.6883 48.8655C46.7159 50.1923 46.6606 51.5283 46.7159 52.8551C46.7343 53.2881 46.8817 53.758 47.1121 54.1266C47.6096 54.9466 48.4849 55.2322 49.3602 55.4165C50.6502 55.7021 51.9585 55.9417 53.2577 56.1259C54.0408 56.2365 54.8424 56.2273 55.6624 56.2734V53.6659H49.9131V51.6388H54.7503V49.8882H49.9131V48.11C53.4327 48.11 56.9063 48.11 60.4444 48.11H66.9216V46.3317H64.7011L64.6827 46.3225Z" fill="white"/>
<path d="M57.1459 49.2156V56.6327C58.2884 56.605 59.4125 56.5037 60.5181 56.301C60.5181 56.1996 60.5181 56.0891 60.5181 55.9785C60.472 53.7211 60.4905 51.473 60.4997 49.2156H57.1551H57.1459Z" fill="white"/>
<path d="M62.1581 49.2156V55.9509C63.3099 55.656 64.4339 55.2691 65.5119 54.7899C65.4843 52.9288 65.4935 51.0768 65.4935 49.2156H62.1489H62.1581Z" fill="white"/>
</g>
<defs>
<clipPath id="clip0_27_52">
<rect width="513.27" height="60.6448" fill="white" transform="translate(0.0575256 0.355177)"/>
</clipPath>
</defs>
</svg>
