<svg width="514" height="61" viewBox="0 0 514 61" fill="none" xmlns="http://www.w3.org/2000/svg">
<g clip-path="url(#clip0_77_185)">
<path d="M131.849 33.1142V38.108H112.647V17.414H130.936V22.1222H118L118.028 25.2825H125.556C126.901 25.3378 127.96 26.425 127.96 27.7702C127.96 29.1154 126.901 30.2303 125.556 30.2763H118.028V33.1234H131.849V33.1142Z" fill="#7CC6F3"/>
<path d="M132.825 30.1013C131.812 30.1013 130.973 29.0048 130.973 27.6688C130.973 26.3329 131.812 25.2364 132.825 25.2364H142.343C143.384 25.2364 144.195 26.3329 144.195 27.6688C144.195 29.0048 143.393 30.1013 142.343 30.1013H132.825Z" fill="#7CC6F3"/>
<path d="M151.658 17.46H158.67C160.015 17.46 161.13 18.5472 161.13 19.9201C161.13 21.2929 160.015 22.3525 158.67 22.3525H153.418V38.0343H148.424V22.3525H142.942C141.569 22.3525 140.509 21.2653 140.509 19.9201C140.509 18.5749 141.569 17.46 142.942 17.46H151.658Z" fill="#263868"/>
<path d="M182.524 38.0619C182.036 38.5042 181.409 38.7345 180.792 38.7345C180.175 38.7345 179.548 38.5042 179.06 38.0619L170.5 29.4747C169.8 28.7745 169.57 27.7149 169.957 26.812C170.344 25.909 171.228 25.3101 172.205 25.3101H176.627C177.457 25.3101 178.129 24.6375 178.129 23.8359C178.129 23.0343 177.457 22.3341 176.627 22.3341H167.856V38.0896H162.89V17.4416H176.756C180.193 17.5153 183.022 20.3439 183.022 23.8359C183.022 26.8857 180.847 29.4287 177.973 30.046L182.524 34.5976C183.482 35.5558 183.482 37.1037 182.524 38.0619Z" fill="#263868"/>
<path d="M206.351 27.8623V38.1817H201.385V35.003H195.147C195.073 35.003 194.99 35.0306 194.917 35.0306C193.544 35.0306 192.429 33.8881 192.429 32.5245C192.429 31.1609 193.461 30.1197 194.76 30.0368H201.385V27.8623C201.385 24.914 198.98 22.5092 196.031 22.5092C193.083 22.5092 190.678 24.914 190.678 27.8623V38.1633H185.684V27.8623C185.684 22.1406 190.319 17.5153 196.031 17.5153C201.744 17.5153 206.351 22.1498 206.351 27.8623Z" fill="#263868"/>
<path d="M209.087 38.1357V19.9477C209.087 18.9895 209.659 18.1142 210.534 17.7272C211.418 17.3126 212.478 17.4692 213.169 18.1418L225.764 30.2763V17.4969H230.657V35.7585C230.657 36.7167 230.085 37.5921 229.21 37.979C228.326 38.3384 227.266 38.2094 226.575 37.5644L213.971 25.4299V38.1357H209.078H209.087Z" fill="#263868"/>
<path d="M252.889 31.64C252.889 35.2057 250.015 38.0804 246.449 38.0804H234.057V33.2432H246.449C247.334 33.2432 248.052 32.5153 248.052 31.64C248.052 30.7647 247.324 30.0644 246.449 30.0644H246.421L243.703 30.0368H239.327C235.863 30.0368 233.043 27.1897 233.043 23.7254C233.043 20.261 235.706 17.543 239.069 17.3863H248.67C249.987 17.3863 251.074 18.4735 251.074 19.8187C251.074 21.164 249.987 22.2512 248.67 22.2512H239.327C238.525 22.2512 237.88 22.8961 237.88 23.7254C237.88 24.5546 238.525 25.1719 239.327 25.1719H243.749L246.468 25.2272C250.015 25.2549 252.88 28.1019 252.88 31.64H252.889Z" fill="#263868"/>
<path d="M275.399 23.7807C275.399 27.3003 272.524 30.175 269.004 30.175H264.554C263.209 30.175 262.122 29.0601 262.122 27.7149C262.122 26.3697 263.209 25.2549 264.554 25.2549H269.004C269.806 25.2549 270.478 24.6099 270.478 23.7807C270.478 22.9514 269.806 22.3065 269.004 22.3065H260.178V38.0896H255.211V17.3955H270.009C273.058 17.3955 275.389 20.6019 275.389 23.7899L275.399 23.7807Z" fill="#263868"/>
<path d="M276.458 27.4017C276.458 21.3482 281.351 16.4281 287.377 16.4281C293.402 16.4281 298.35 21.3482 298.35 27.4017C298.35 33.4551 293.43 38.3199 287.377 38.3199C281.323 38.3199 276.458 33.4274 276.458 27.4017ZM281.249 27.4017C281.249 30.7647 283.995 33.5288 287.377 33.5288C290.758 33.5288 293.504 30.7647 293.504 27.4017C293.504 24.0386 290.758 21.2745 287.377 21.2745C283.995 21.2745 281.249 24.0202 281.249 27.4017Z" fill="#263868"/>
<path d="M320.435 38.0619C319.947 38.5042 319.32 38.7345 318.703 38.7345C318.086 38.7345 317.459 38.5042 316.971 38.0619L308.411 29.4747C307.711 28.7745 307.481 27.7149 307.868 26.812C308.255 25.909 309.139 25.3101 310.116 25.3101H314.539C315.368 25.3101 316.04 24.6375 316.04 23.8359C316.04 23.0343 315.368 22.3341 314.539 22.3341H305.767V38.0896H300.801V17.4416H314.668C318.104 17.5153 320.933 20.3439 320.933 23.8359C320.933 26.8857 318.758 29.4287 315.884 30.046L320.435 34.5976C321.394 35.5558 321.394 37.1037 320.435 38.0619Z" fill="#263868"/>
<path d="M333.473 17.46H340.485C341.83 17.46 342.945 18.5472 342.945 19.9201C342.945 21.2929 341.83 22.3525 340.485 22.3525H335.233V38.0343H330.239V22.3525H324.757C323.384 22.3525 322.324 21.2653 322.324 19.9201C322.324 18.5749 323.384 17.46 324.757 17.46H333.473Z" fill="#263868"/>
<path d="M363.897 33.1142V38.108H344.695V17.414H362.984V22.1222H350.048L350.076 25.2825H357.604C358.949 25.3378 360.008 26.425 360.008 27.7702C360.008 29.1154 358.949 30.2303 357.604 30.2763H350.076V33.1234H363.887L363.897 33.1142Z" fill="#263868"/>
<path d="M385.217 35.6572C385.217 37.03 384.102 38.1449 382.729 38.1449H374.861C369.139 38.1449 364.514 33.5104 364.514 27.7978C364.514 22.0853 369.148 17.4508 374.861 17.4508H382.674V22.4447H374.861C371.885 22.4447 369.48 24.8494 369.48 27.7978C369.48 30.7462 371.885 33.1787 374.861 33.1787H382.729C384.102 33.1787 385.217 34.2935 385.217 35.6664V35.6572Z" fill="#263868"/>
<path d="M506.839 35.6572C506.839 37.03 505.724 38.1449 504.351 38.1449H496.482C490.761 38.1449 486.135 33.5104 486.135 27.7978C486.135 22.0853 490.77 17.4508 496.482 17.4508H504.296V22.4447H496.482C493.506 22.4447 491.101 24.8494 491.101 27.7978C491.101 30.7462 493.506 33.1787 496.482 33.1787H504.351C505.724 33.1787 506.839 34.2935 506.839 35.6664V35.6572Z" fill="#263868"/>
<path d="M407.284 38.1356H402.318V30.2671H391.612V38.1356H386.618V19.7634C386.691 18.4735 387.779 17.4324 389.105 17.4324C390.432 17.4324 391.51 18.4643 391.593 19.7634H391.621V25.3009H402.327V19.8464C402.382 18.5012 403.47 17.4416 404.815 17.4416C406.16 17.4416 407.247 18.5012 407.303 19.8464V38.1356H407.284Z" fill="#263868"/>
<path d="M447.898 31.64C447.898 35.2057 445.023 38.0804 441.458 38.0804H429.065V33.2432H441.458C442.342 33.2432 443.061 32.5153 443.061 31.64C443.061 30.7647 442.333 30.0644 441.458 30.0644H441.43L438.712 30.0368H434.336C430.871 30.0368 428.052 27.1897 428.052 23.7254C428.052 20.261 430.715 17.543 434.078 17.3863H443.678C444.996 17.3863 446.083 18.4735 446.083 19.8187C446.083 21.164 444.996 22.2512 443.678 22.2512H434.336C433.534 22.2512 432.889 22.8961 432.889 23.7254C432.889 24.5546 433.534 25.1719 434.336 25.1719H438.758L441.476 25.2272C445.023 25.2549 447.889 28.1019 447.889 31.64H447.898Z" fill="#263868"/>
<path d="M452.247 38.1633C450.874 38.1633 449.787 37.1037 449.787 35.7309C449.787 34.358 450.874 33.2985 452.247 33.2985C453.62 33.2985 454.68 34.3857 454.68 35.7309C454.68 37.0761 453.592 38.1633 452.247 38.1633Z" fill="#263868"/>
<path d="M478.221 27.8623V38.1817H473.254V35.003H467.017C466.943 35.003 466.86 35.0306 466.786 35.0306C465.413 35.0306 464.299 33.8881 464.299 32.5245C464.299 31.1609 465.33 30.1197 466.63 30.0368H473.254V27.8623C473.254 24.914 470.849 22.5092 467.901 22.5092C464.953 22.5092 462.548 24.914 462.548 27.8623V38.1633H457.554V27.8623C457.554 22.1406 462.189 17.5153 467.901 17.5153C473.614 17.5153 478.221 22.1498 478.221 27.8623Z" fill="#263868"/>
<path d="M483.519 38.1633C482.146 38.1633 481.058 37.1037 481.058 35.7309C481.058 34.358 482.146 33.2985 483.519 33.2985C484.891 33.2985 485.951 34.3857 485.951 35.7309C485.951 37.0761 484.864 38.1633 483.519 38.1633Z" fill="#263868"/>
<path d="M510.837 38.1633C509.464 38.1633 508.377 37.1037 508.377 35.7309C508.377 34.358 509.464 33.2985 510.837 33.2985C512.21 33.2985 513.27 34.3857 513.27 35.7309C513.27 37.0761 512.182 38.1633 510.837 38.1633Z" fill="#263868"/>
<path d="M62.073 7.35255V22.1037C62.073 26.2591 62.073 30.4145 62.073 34.5791C62.073 34.9385 62.0269 35.1504 61.5846 35.1504C56.6276 35.1412 51.6706 35.132 46.7044 35.1688C45.9489 35.1688 45.3961 34.9477 44.8433 34.4686C44.0969 33.8144 43.2585 33.2432 42.2358 33.1418C41.3789 33.0497 40.5036 33.0865 39.6467 32.9944C39.0847 32.9391 38.5134 32.8193 37.9975 32.6074C36.8273 32.1191 35.6664 31.9348 34.4225 32.2849C32.3679 32.8654 31.1793 34.2935 30.4698 36.21C30.2671 36.7536 30.175 37.3341 30.0184 37.9329C29.7604 37.9329 29.53 37.9329 29.2905 37.9329C26.2407 37.9606 23.191 37.9882 20.1412 38.0251C19.5884 38.0251 19.183 38.4858 19.2199 39.0755C19.2567 39.7573 19.57 40.1535 20.1504 40.1719C20.5927 40.1719 21.035 40.1719 21.4772 40.1719C24.1676 40.1719 26.858 40.1719 29.5577 40.1719C29.7143 40.1719 29.9723 40.2456 30.0184 40.3562C30.1934 40.7708 30.304 41.213 30.4514 41.7014H29.8341C20.9244 41.7014 12.0055 41.7014 3.09582 41.7014C2.36793 41.7014 1.63083 41.7567 0.902946 41.7935C0.76474 41.7935 0.608107 41.8672 0.497542 41.9409C0.175061 42.1621 0.0829236 42.5214 0.230343 42.8347C0.377763 43.1479 0.61732 43.4336 1.07801 43.4336C4.04483 43.4151 7.01165 43.4336 9.97848 43.4336C17.2389 43.4336 24.4993 43.4336 31.7598 43.4336C31.9348 43.4336 32.1928 43.4243 32.2757 43.5257C33.2063 44.6498 34.4041 45.3224 35.8322 45.4053C37.4078 45.4974 38.9925 45.4514 40.5773 45.4421C40.7708 45.4421 40.9551 45.3408 41.1486 45.2855C42.8347 44.788 43.8574 43.581 44.5761 42.0607C44.7327 41.729 44.917 41.5816 45.2947 41.5816C53.799 41.5908 62.3033 41.5908 70.8076 41.5816C71.1669 41.5816 71.388 41.6829 71.5723 42.0146C72.3186 43.3691 73.4519 44.2812 74.88 44.8617C76.0133 45.3224 77.2019 45.2855 78.3813 45.2579C80.049 45.2302 81.3942 44.5023 82.4537 43.2401C82.8315 42.7886 83.0434 42.0883 83.5041 41.858C84.0016 41.6092 84.7019 41.7751 85.3192 41.8027C85.4758 41.8027 85.6878 41.9317 85.7707 42.0699C86.2498 42.7886 86.7197 43.4888 87.4384 44.014C89.0324 45.1749 90.7922 45.4606 92.6626 44.9446C94.2381 44.5116 95.3622 43.4796 96.173 42.0699C96.2467 41.9317 96.4678 41.8119 96.6245 41.8027C97.0944 41.7659 97.5643 41.7935 98.0618 41.7935C98.0618 41.3973 98.0618 41.0748 98.0618 40.7616C98.0618 40.6786 98.0526 40.5312 98.0157 40.522C97.6195 40.4207 97.7578 40.0982 97.7578 39.8678C97.7485 38.4858 97.7578 37.1037 97.7578 35.7309C97.7578 35.5927 97.7946 35.4084 97.7301 35.3347C97.2879 34.8556 97.4721 34.2751 97.4629 33.7407C97.4353 32.5521 97.3892 31.3543 97.4629 30.1658C97.509 29.3642 97.1681 28.9035 96.5323 28.4981C94.966 27.5122 93.4273 26.4895 91.8978 25.4575C91.6675 25.3009 91.4463 25.0521 91.3542 24.7942C90.8843 23.4674 90.4513 22.1314 89.9998 20.7954C89.6681 19.8095 89.4378 18.7684 88.9586 17.8654C88.0465 16.1609 86.6091 14.9355 84.9415 13.968C83.1908 12.9545 81.2191 12.5675 79.3303 11.9686C77.3125 11.3329 75.2117 10.9459 73.1663 10.4023C70.0705 9.58228 66.9839 8.71619 63.8881 7.86852C63.3076 7.71189 62.7363 7.54604 62.0914 7.36177L62.073 7.35255ZM50.8598 22.1682C50.7216 22.3157 50.5558 22.4907 50.3991 22.6658C50.0675 23.0343 49.6989 23.2094 49.1737 23.2002C46.9071 23.1633 44.6406 23.1725 42.374 23.2002C42.1344 23.2002 41.8304 23.3107 41.6553 23.4766C40.3101 24.7112 39.0018 25.9919 37.6381 27.1989C37.2235 27.5675 36.9194 28.1111 36.2008 28.1111C26.812 28.0927 17.4232 28.1019 8.03438 28.0835C7.77639 28.0835 7.48156 27.9729 7.26964 27.8255C6.62468 27.3648 6.035 27.3648 5.27026 27.8992C4.88328 28.1664 4.64372 28.9772 4.80036 29.5024C5.13205 30.6357 6.10871 31.0411 7.19593 30.5159C7.4447 30.3961 7.73033 30.2855 7.99752 30.2855C10.5313 30.2855 13.0743 30.3408 15.6081 30.3408C22.9146 30.35 30.2303 30.3408 37.5368 30.3408C37.7579 30.3408 38.0251 30.2211 38.1909 30.0736C38.9833 29.3826 39.7665 28.6824 40.5036 27.936C41.3144 27.1344 42.1621 26.5171 43.3967 26.7567C43.5533 26.7843 43.8021 26.6185 43.9219 26.4711C44.7788 25.4575 46.0687 25.5036 46.8611 26.5632C46.9532 26.6922 47.2112 26.7567 47.3863 26.7659C48.4458 26.7843 49.4962 26.7751 50.5558 26.7659C51.0625 26.7659 51.5048 26.8212 51.8826 26.2315C52.334 25.5128 53.6424 25.5497 54.2413 26.1578C54.9139 26.8396 54.8955 28.0466 54.2044 28.6547C53.5134 29.2628 52.4262 29.143 51.7996 28.4244C51.6799 28.2862 51.4772 28.148 51.3113 28.148C49.9292 28.148 48.5564 28.1756 47.1743 28.2032C47.0638 28.2032 46.9071 28.2677 46.8519 28.3507C46.1148 29.401 44.8064 29.4563 43.9956 28.4797C43.9035 28.3599 43.756 28.2309 43.627 28.2125C43.0834 28.1572 42.5398 28.148 42.1805 28.71C42.0699 28.8851 41.8396 28.9864 41.683 29.1338C41.296 29.5116 40.909 29.8986 40.5036 30.3132H57.033V11.1486C56.9593 11.1302 56.9133 11.1118 56.8672 11.1118C54.4163 11.1118 51.9563 11.1118 49.5054 11.1118C49.3304 11.1118 49.1276 11.2315 48.9894 11.3513C48.2708 11.9778 47.5705 12.6228 46.8519 13.2586C46.3727 13.6824 45.8476 13.9312 45.1657 13.9127C44.1614 13.8851 43.1571 13.9496 42.1529 13.9496C36.6338 13.9588 31.1148 13.968 25.5866 13.968C25.0522 13.968 24.6744 14.3089 24.6467 14.8065C24.6099 15.4054 24.9232 15.8016 25.4944 15.82C26.4987 15.8568 27.503 15.8845 28.5073 15.8753C31.8795 15.8568 35.2518 15.82 38.624 15.8108C41.3881 15.8016 44.143 15.8108 46.9071 15.8108C47.073 15.8108 47.2941 15.8292 47.3955 15.7371C47.8838 15.304 48.3906 14.8802 48.7867 14.3734C49.3211 13.6824 50.0306 13.3507 50.9059 13.5442C51.5232 13.6824 52.0853 14.2168 52.1498 14.788C52.2511 15.6818 52.0208 16.1793 51.3205 16.5847C50.6479 16.9717 49.8463 16.9256 49.3856 16.4649C49.0908 16.1701 48.8605 16.1517 48.584 16.4649C48.4366 16.6308 48.2431 16.7598 48.1141 16.9256C47.8654 17.2573 47.5613 17.3587 47.1467 17.3587C44.8617 17.3402 42.5767 17.3587 40.2917 17.3402C39.7665 17.3402 39.3427 17.4324 38.9833 17.847C38.5687 18.3261 38.0527 18.5104 37.3801 18.492C35.2518 18.4367 33.1234 18.4643 30.9858 18.4735C30.2026 18.4735 29.4195 18.5196 28.6363 18.5657C28.1664 18.5933 27.9545 18.9158 27.9084 19.3396C27.8347 19.9385 28.3046 20.4913 28.9127 20.5006C29.7143 20.519 30.5159 20.5006 31.3175 20.5006C33.5196 20.5006 35.7124 20.5098 37.9145 20.5282C38.0988 20.5282 38.2831 20.6111 38.4674 20.6572C38.4121 20.8599 38.4121 21.0994 38.3015 21.2469C37.804 21.8918 37.2511 22.4999 36.7444 23.1449C36.5048 23.4582 36.2376 23.5779 35.8322 23.5779C30.7923 23.5687 25.7432 23.5779 20.7033 23.5779C20.4821 23.5779 20.261 23.5779 20.0399 23.5872C19.4778 23.6332 18.9987 24.14 19.0172 24.6652C19.0356 25.1351 19.5055 25.5405 20.0583 25.5589C20.9244 25.5865 21.7905 25.6234 22.6658 25.6234C26.4987 25.6234 30.3316 25.6234 34.1645 25.6234C34.8095 25.6234 35.4545 25.6234 36.0994 25.5681C36.3943 25.5405 36.7536 25.476 36.9655 25.2917C37.9237 24.4625 38.8728 23.6148 39.7573 22.7119C40.5312 21.9287 41.3605 21.5693 42.4938 21.6246C44.6498 21.7168 46.8242 21.6523 48.9894 21.6431C49.1645 21.6431 49.4133 21.6431 49.5146 21.5325C49.9569 21.0534 50.6479 20.7862 50.823 20.0491C50.869 19.8556 51.0441 19.6621 51.21 19.5331C51.9102 18.9895 52.7486 18.9158 53.5687 19.3765C54.1307 19.6897 54.4532 20.6388 54.2966 21.3851C54.057 22.4907 53.1172 23.0988 52.0392 22.7763C51.6522 22.6658 51.3021 22.4078 50.8598 22.1682ZM33.7407 48.022C38.2739 55.4206 47.6535 61.8702 60.1012 60.4605C68.4673 59.5115 74.7234 55.0336 79.3764 48.022C77.5152 48.022 75.7646 48.022 74.014 48.0312C73.8389 48.0312 73.6362 48.1602 73.5072 48.2892C72.6503 49.1645 71.8119 50.0582 70.955 50.9335C70.7062 51.1915 70.4022 51.3942 70.0428 51.6891V43.9311C69.8678 43.9311 69.7296 43.9311 69.6006 43.9311C62.6534 43.9311 55.697 43.9311 48.7499 43.9311C48.1234 43.9311 47.4968 44.0048 46.8887 44.1338C44.5208 44.6313 42.8347 47.1098 42.9452 49.2474C42.9821 49.9845 42.9452 50.7216 42.9452 51.4587C42.89 51.4956 42.8255 51.5232 42.7702 51.5601C41.7659 50.5373 40.7524 49.533 39.7757 48.4919C39.4809 48.1786 39.2229 47.9759 38.753 47.9944C37.7118 48.0404 36.6707 48.0036 35.6387 48.0036H33.7407V48.022ZM60.8383 8.0528H60.1289C55.0705 8.0528 50.003 8.0528 44.9446 8.0528C44.53 8.0528 44.2259 8.17258 43.9035 8.44899C43.5257 8.78068 43.0558 9.1953 42.6043 9.21373C40.5681 9.29665 38.5226 9.2598 36.4772 9.2598C28.4705 9.2598 20.4637 9.27822 12.4478 9.2598C12.1069 9.2598 11.7475 9.12159 11.4158 8.9926C10.8354 8.76225 10.2549 8.73461 9.72049 9.05709C8.9189 9.54542 8.75305 10.605 9.26902 11.3605C9.78499 12.1253 11.1486 12.1161 11.6277 11.6277C11.9041 11.3421 12.1806 11.3145 12.5215 11.3145C23.6148 11.3145 34.7081 11.3145 45.8015 11.3145C46.1148 11.3145 46.4833 11.2131 46.7413 11.0473C47.1283 10.7893 47.4231 10.4023 47.8009 10.1259C48.0312 9.96004 48.3353 9.80341 48.6025 9.80341C51.7167 9.78498 54.8402 9.80341 57.9544 9.77577C58.4335 9.77577 58.5902 9.88633 58.5902 10.3931C58.5717 17.46 58.5809 24.5362 58.5809 31.6031V32.2112H43.9772C44.788 32.9115 45.479 33.538 46.1977 34.1277C46.3359 34.2382 46.5662 34.2751 46.7597 34.2843C47.0453 34.2935 47.331 34.2382 47.6166 34.2382C50.1688 34.2382 52.7302 34.2567 55.2824 34.2659C56.8488 34.2659 58.4151 34.2382 59.9814 34.2843C60.8199 34.3027 60.8199 34.358 60.8199 33.5196C60.8199 33.4366 60.8199 33.3537 60.8199 33.2616C60.8199 26.8857 60.8199 20.519 60.8199 14.1431C60.8199 12.1345 60.8199 10.1351 60.8199 8.0528H60.8383ZM29.9354 5.906H30.6265C36.21 5.906 41.8027 5.906 47.3863 5.906C47.8193 5.906 48.2523 5.80465 48.6762 5.72172C50.6203 5.34396 52.5459 4.79113 54.4993 4.6345C56.729 4.45944 58.9956 4.46865 61.2437 4.87406C63.8973 5.35317 66.3942 6.23769 68.8358 7.34334C69.0846 7.4539 69.3794 7.53683 69.6466 7.54604C71.6737 7.56447 73.7007 7.54604 75.7277 7.54604H76.216C76.1423 7.32491 76.0226 7.21435 75.8936 7.113C74.2443 5.79543 72.549 4.57 70.7154 3.51964C67.3248 1.58475 63.6854 0.451463 59.8064 0.110555C58.1663 -0.0368646 56.4986 0.00920407 54.8494 0.110555C53.3107 0.202693 51.7628 0.405395 50.2609 0.718662C47.2573 1.35441 44.4471 2.53377 41.8027 4.09089C41.3328 4.3673 40.8076 4.699 40.3009 4.72664C37.9606 4.8372 35.6111 4.80956 33.2708 4.91091C32.1559 4.95698 31.0503 5.21497 29.9354 5.91521V5.906ZM10.476 14.7973C7.70268 14.7973 4.92935 14.7973 2.15601 14.7973C1.96253 14.7973 1.75061 14.8341 1.58476 14.9355C1.207 15.175 1.05037 15.5528 1.16093 15.9858C1.28992 16.4926 1.73218 16.8335 2.20208 16.8335C7.25121 16.8058 12.3096 16.7782 17.3587 16.7506C17.8562 16.7506 18.3446 16.769 18.8421 16.7414C19.3949 16.7045 19.6805 16.2715 19.6437 15.5988C19.616 15.0276 19.3673 14.788 18.8052 14.788C16.0319 14.788 13.2586 14.788 10.4852 14.788L10.476 14.7973ZM6.36669 24.2045C8.13573 24.2045 9.90477 24.2045 11.6738 24.2045C12.3096 24.2045 12.6781 23.8267 12.6781 23.2094C12.6781 22.5276 12.3372 22.159 11.6922 22.159C8.21865 22.159 4.75429 22.159 1.28071 22.159C1.17936 22.159 1.07801 22.159 0.976656 22.159C0.469901 22.2143 0.110565 22.675 0.128992 23.2278C0.14742 23.7714 0.552824 24.1953 1.05958 24.1953C2.82862 24.1953 4.59766 24.1953 6.36669 24.1953V24.2045ZM20.1873 18.6394C20.1873 18.6394 20.1873 18.667 20.1873 18.6855C18.8789 18.6855 17.5706 18.6855 16.2622 18.6855C16.1333 18.6855 15.9674 18.6855 15.8845 18.7684C15.5436 19.0816 15.3409 19.4502 15.4883 19.9385C15.6357 20.4176 15.8937 20.7401 16.4557 20.7309C17.5982 20.7125 18.7407 20.7309 19.874 20.7309C21.2837 20.7309 22.6934 20.7309 24.1124 20.6848C24.3611 20.6848 24.6467 20.5558 24.831 20.39C25.1719 20.0859 25.2549 19.6713 25.0522 19.2291C24.8587 18.8052 24.5085 18.6486 24.0663 18.6486C22.7764 18.6486 21.4772 18.6486 20.1873 18.6486V18.6394ZM30.5251 32.6166C30.5251 32.6166 30.479 32.5245 30.4606 32.4784C28.7653 32.4784 27.07 32.4784 25.3654 32.4784C23.8359 32.4784 22.2972 32.4784 20.7678 32.4784C20.132 32.4784 19.8188 32.8193 19.828 33.4643C19.8372 34.1553 20.0952 34.4225 20.7586 34.4225C23.2647 34.4225 25.7616 34.4225 28.2677 34.4225C28.4244 34.4225 28.6363 34.4225 28.7376 34.3304C29.3458 33.7776 29.9262 33.1971 30.5159 32.6166H30.5251ZM13.4244 35.7493C12.4662 35.7493 11.5172 35.7493 10.5589 35.7493C10.3562 35.7493 10.1443 35.7217 9.95084 35.7677C9.48094 35.8875 9.14003 36.4311 9.20452 36.901C9.27823 37.4446 9.71128 37.8685 10.2733 37.8685C12.3464 37.8685 14.4287 37.85 16.5018 37.8132C17.1007 37.804 17.4785 37.3248 17.4508 36.726C17.4232 36.081 17.0731 35.7493 16.4281 35.7493C15.4238 35.7493 14.4195 35.7493 13.4152 35.7493H13.4244ZM15.304 25.8445C16.1425 25.8445 16.7414 25.3378 16.7137 24.6099C16.6861 23.8636 16.078 23.3476 15.4514 23.3752C14.6314 23.4121 14.1154 23.8175 14.1062 24.527C14.1062 25.4391 14.4656 25.8353 15.2948 25.8445H15.304ZM1.18857 30.35C1.88882 30.35 2.54299 29.8249 2.54299 29.272C2.54299 28.5073 1.98095 27.89 1.28992 27.89C0.562038 27.89 0.00921374 28.4244 0 29.1523C0 29.8617 0.479114 30.35 1.18857 30.3593V30.35Z" fill="white"/>
<path d="M62.073 7.35254C62.718 7.53681 63.2892 7.70266 63.8697 7.85929C66.9563 8.70696 70.0429 9.56384 73.1479 10.3931C75.1934 10.9367 77.2941 11.3329 79.3119 11.9594C81.2007 12.5491 83.1725 12.9453 84.9231 13.9588C86.6 14.9262 88.0373 16.1424 88.9403 17.8562C89.4194 18.7591 89.6497 19.8003 89.9814 20.7862C90.4329 22.1129 90.8567 23.4582 91.3359 24.7849C91.428 25.0429 91.6491 25.2917 91.8795 25.4483C93.4089 26.4803 94.9476 27.503 96.514 28.4889C97.1497 28.8943 97.4906 29.3457 97.4446 30.1565C97.3801 31.3451 97.4261 32.5429 97.4446 33.7315C97.4538 34.2659 97.2695 34.8463 97.7118 35.3254C97.7855 35.3992 97.7394 35.5926 97.7394 35.7216C97.7394 37.1037 97.7394 38.4858 97.7394 39.8586C97.7394 40.0982 97.592 40.4114 97.9974 40.5128C98.0342 40.5128 98.0435 40.6694 98.0435 40.7523C98.0435 41.0748 98.0435 41.3973 98.0435 41.7843C97.5459 41.7843 97.076 41.7659 96.6061 41.7935C96.4495 41.8027 96.2283 41.9225 96.1546 42.0607C95.3438 43.4612 94.2198 44.4931 92.6442 44.9354C90.7738 45.4513 89.0232 45.1749 87.42 44.0048C86.7013 43.4796 86.2222 42.7794 85.7523 42.0607C85.6602 41.9225 85.4575 41.8027 85.3009 41.7935C84.6928 41.7659 83.9833 41.6092 83.4857 41.8488C83.0251 42.0791 82.8131 42.7794 82.4354 43.2308C81.3758 44.4931 80.0306 45.221 78.3629 45.2486C77.1836 45.2671 75.995 45.3131 74.8617 44.8525C73.4336 44.272 72.2911 43.3598 71.554 42.0054C71.3697 41.6737 71.1486 41.5724 70.7892 41.5724C62.2849 41.5724 53.7807 41.5724 45.2764 41.5724C44.8894 41.5724 44.7143 41.7198 44.5577 42.0515C43.839 43.5717 42.8163 44.7787 41.1302 45.2763C40.9367 45.3316 40.7524 45.4329 40.5589 45.4329C38.9742 45.4329 37.3894 45.4882 35.8139 45.3961C34.3765 45.3131 33.188 44.6313 32.2574 43.5165C32.1744 43.4151 31.9165 43.4243 31.7414 43.4243C24.481 43.4243 17.2205 43.4243 9.96012 43.4243C6.9933 43.4243 4.02647 43.4243 1.05965 43.4243C0.598964 43.4243 0.359407 43.1387 0.211987 42.8254C0.0645677 42.5122 0.156705 42.1528 0.479186 41.9317C0.598964 41.8488 0.746384 41.7935 0.88459 41.7843C1.61248 41.7382 2.34957 41.6921 3.07746 41.6921C11.9871 41.6921 20.906 41.6921 29.8157 41.6921H30.433C30.2856 41.2038 30.1751 40.7616 30 40.3469C29.9539 40.2364 29.696 40.1627 29.5393 40.1627C26.8489 40.1534 24.1585 40.1627 21.4589 40.1627C21.0166 40.1627 20.5743 40.1627 20.1321 40.1627C19.5424 40.1534 19.2291 39.7573 19.2015 39.0662C19.1739 38.4673 19.5701 38.0251 20.1229 38.0159C23.1726 37.979 26.2224 37.9514 29.2721 37.9237C29.5117 37.9237 29.742 37.9237 30 37.9237C30.1566 37.3248 30.258 36.7444 30.4515 36.2008C31.1609 34.2843 32.3495 32.8562 34.4042 32.2757C35.648 31.9256 36.809 32.1099 37.9791 32.5982C38.4951 32.8101 39.0663 32.9299 39.6284 32.9852C40.4852 33.0773 41.3605 33.0404 42.2174 33.1326C43.2401 33.2431 44.0786 33.8052 44.8249 34.4594C45.3685 34.9385 45.9306 35.1688 46.6861 35.1596C51.6431 35.1227 56.6001 35.132 61.5663 35.1412C62.0085 35.1412 62.0546 34.9385 62.0546 34.5699C62.0546 30.4145 62.0546 26.2591 62.0546 22.0945V7.35254H62.073ZM89.4562 24.6007C89.4655 24.5085 89.4839 24.4625 89.4747 24.4348C88.9956 22.9883 88.5257 21.5417 88.0373 20.1044C88.0005 20.0122 87.8162 19.9201 87.6964 19.9109C86.8396 19.8279 85.9827 19.745 85.1166 19.7082C83.4213 19.6252 81.7351 19.57 80.0398 19.4962C79.7726 19.487 79.5054 19.4225 79.2382 19.4133C78.6025 19.4041 77.9667 19.4133 77.2757 19.4133C77.6995 21.0349 78.1326 22.5736 78.5103 24.14C78.6025 24.5269 78.7499 24.6191 79.1184 24.6191C81.4679 24.6007 83.8174 24.6099 86.1669 24.6099C87.2542 24.6099 88.3414 24.6099 89.4562 24.6099V24.6007ZM73.3138 38.2831C73.2954 39.0847 73.5257 39.8218 73.9495 40.4851C74.9538 42.0607 76.6768 42.42 77.9575 41.3697C79.7081 39.9231 79.9845 37.3709 78.4827 35.6019C77.3678 34.2935 75.5804 34.2474 74.3826 35.4821C73.6271 36.256 73.3414 37.2327 73.323 38.2923L73.3138 38.2831ZM38.9742 38.412C38.9742 37.1313 38.5596 36.2745 37.6105 35.4637C36.4312 34.4409 34.7543 34.8187 33.8974 35.8967C32.7273 37.3617 32.6904 39.3334 33.7684 40.8721C34.699 42.2173 36.4404 42.5582 37.7027 41.3697C38.5688 40.5589 38.965 39.573 38.9742 38.412ZM89.5023 34.745C89.6037 35.1596 89.9169 35.3439 90.3961 35.3439C91.861 35.3439 93.326 35.3439 94.791 35.3439C95.3899 35.3439 95.7953 34.9938 95.8137 34.3949C95.8414 33.2616 95.8414 32.1191 95.8137 30.9858C95.7953 30.304 95.353 29.9354 94.662 29.9354C93.28 29.9354 91.8979 29.9999 90.525 29.9078C89.7419 29.8617 89.272 30.5159 89.4655 31.3267H95.2701C95.4175 31.815 95.2701 31.9809 94.8187 31.9532C94.4317 31.9348 94.0355 31.9716 93.6485 31.9716C92.3494 31.9716 91.0594 31.9532 89.7603 31.9532C89.4102 31.9532 89.4102 31.9716 89.4562 32.3771H90.0091C91.6307 32.3771 93.2431 32.3771 94.8647 32.3771C95.3438 32.3771 95.3346 32.3771 95.2425 32.893H89.4194V33.3998C89.6129 33.3998 89.7787 33.3998 89.9446 33.3998C91.5386 33.3721 93.1417 33.3353 94.7357 33.2984C95.1043 33.2984 95.4452 33.3353 95.2793 33.9065H89.3918C89.4102 34.0908 89.4194 34.2382 89.4286 34.3764C89.6774 34.358 89.8893 34.3304 90.1104 34.3304C91.732 34.3304 93.3444 34.3211 94.9661 34.3304C95.0858 34.3304 95.2056 34.4501 95.3254 34.5239C95.2241 34.6621 95.1319 34.8187 95.0029 34.92C94.9292 34.9753 94.7726 34.9385 94.6528 34.9385C93.3537 34.9385 92.0637 34.9569 90.7646 34.9385C90.3684 34.9385 89.963 34.8279 89.5208 34.7634L89.5023 34.745ZM76.2714 26.0933C76.2714 26.0933 76.2714 26.1578 76.2714 26.1946C76.9993 26.4434 77.7272 26.683 78.4458 26.9502C79.9937 27.5214 81.5601 28.0558 83.0619 28.7192C84.2228 29.2352 85.3377 29.8986 86.4065 30.5988C86.729 30.8107 86.9685 31.3267 87.0238 31.7321C87.1344 32.4968 87.0975 33.2892 87.116 34.0724C87.116 34.4225 87.116 34.7726 87.116 35.1043H88.065C88.065 33.409 88.065 31.7597 88.065 30.1105C88.065 29.9815 87.9821 29.8064 87.8807 29.7327C86.7935 28.9588 85.6786 28.2309 84.3795 27.8623C82.7394 27.4016 81.0902 26.9409 79.4317 26.5632C78.3998 26.3236 77.331 26.2407 76.2714 26.0841V26.0933ZM79.9385 12.4109C79.9385 12.4109 79.9385 12.328 79.9385 12.2819C75.2395 11.2868 70.4944 11.4434 65.7401 11.7291C69.5914 12.2819 73.194 13.3875 76.253 15.9121C76.0226 15.5528 75.7923 15.2026 75.5619 14.8433C75.7001 14.871 75.7831 14.9447 75.8752 15.0092C75.9581 15.0644 76.0503 15.1105 76.1424 15.1658C75.1381 13.5165 73.7008 12.4754 71.858 11.9686L79.9292 12.4109H79.9385ZM69.0939 38.3568C69.1676 37.8777 69.2413 37.3893 69.3334 36.7536C69.0294 37.1406 68.799 37.3801 68.6332 37.6565C68.4674 37.9514 68.2554 38.0251 67.9237 38.0159C66.7997 37.9606 65.6756 37.9053 64.5607 37.9053C61.4096 37.9237 58.2677 37.9698 55.1167 38.0066C54.7112 38.0066 54.2966 38.0343 53.8912 38.0804C53.5964 38.1172 53.1081 38.0251 53.1449 38.4673C53.1726 38.8727 53.6332 38.799 53.9465 38.799C56.858 38.8082 59.7696 38.8451 62.6811 38.799C64.8187 38.7714 66.9839 39.0662 69.0939 38.3476V38.3568ZM96.3666 37.6657C96.3666 37.6012 96.3573 37.546 96.3481 37.4815C92.7916 37.4815 89.2351 37.4815 85.6786 37.4815C85.4022 37.4815 85.135 37.4722 84.8678 37.4999C84.6006 37.5275 84.3426 37.592 84.0754 37.6381C84.1491 37.7487 84.2044 37.7763 84.2689 37.7947C85.7247 38.1264 87.1805 38.4305 88.627 38.799C90.0644 39.1676 91.4925 39.3703 92.9575 39.0202C94.1645 38.7345 95.353 38.4213 96.3758 37.675L96.3666 37.6657ZM76.6399 24.4901C76.3267 23.1817 76.0595 22.0208 75.7646 20.8507C75.7186 20.6664 75.5527 20.39 75.4329 20.3808C74.6037 20.3439 73.7745 20.3623 72.9268 20.3623V23.1265C74.1246 23.5687 75.3132 24.0018 76.6307 24.4901H76.6399Z" fill="#263868"/>
<path d="M50.8599 22.159C51.3021 22.3894 51.6523 22.6474 52.0392 22.7671C53.1172 23.0804 54.057 22.4815 54.2966 21.3759C54.4532 20.6296 54.1308 19.6805 53.5687 19.3673C52.7487 18.9066 51.9102 18.9895 51.21 19.5239C51.0442 19.6529 50.8691 19.8464 50.823 20.0399C50.6572 20.777 49.9661 21.0442 49.5147 21.5233C49.4133 21.6339 49.1645 21.6339 48.9895 21.6339C46.8243 21.6339 44.659 21.7076 42.4938 21.6154C41.3605 21.5694 40.5221 21.9195 39.7573 22.7027C38.8728 23.6056 37.9238 24.4533 36.9656 25.2825C36.7536 25.4668 36.4035 25.5405 36.0995 25.5589C35.4545 25.6142 34.8095 25.605 34.1646 25.6142C30.3317 25.6142 26.4988 25.6234 22.6658 25.6142C21.7997 25.6142 20.9337 25.5773 20.0584 25.5497C19.5055 25.5313 19.0356 25.1259 19.0172 24.656C18.9988 24.14 19.4687 23.6332 20.0399 23.578C20.2611 23.5595 20.4822 23.5687 20.7033 23.5687C25.7432 23.5687 30.7924 23.5595 35.8323 23.5687C36.2377 23.5687 36.5049 23.4398 36.7444 23.1357C37.2512 22.4907 37.7948 21.8826 38.3016 21.2377C38.4213 21.0902 38.4121 20.8507 38.4674 20.648C38.2831 20.6019 38.0989 20.519 37.9146 20.519C35.7125 20.5006 33.5196 20.5006 31.3175 20.4914C30.5159 20.4914 29.7143 20.5098 28.9128 20.4914C28.3046 20.4821 27.8347 19.9293 27.9085 19.3304C27.9637 18.9066 28.1664 18.5841 28.6363 18.5565C29.4195 18.5104 30.2027 18.4735 30.9858 18.4643C33.1142 18.4551 35.2426 18.4275 37.3802 18.4828C38.0528 18.5012 38.5688 18.3169 38.9834 17.8378C39.3427 17.4232 39.7665 17.3218 40.2917 17.331C42.5767 17.3495 44.8617 17.331 47.1467 17.3495C47.5614 17.3495 47.8654 17.2481 48.1142 16.9164C48.2432 16.7414 48.4367 16.6124 48.5841 16.4557C48.8605 16.1425 49.0908 16.1609 49.3857 16.4557C49.8464 16.9164 50.648 16.9625 51.3206 16.5755C52.0208 16.1701 52.2512 15.6726 52.1498 14.7788C52.0853 14.2168 51.5325 13.6732 50.9059 13.535C50.0306 13.3415 49.3304 13.6732 48.7868 14.3642C48.3906 14.871 47.8838 15.2948 47.3955 15.7279C47.2942 15.82 47.073 15.8016 46.9072 15.8016C44.1431 15.8016 41.3882 15.8016 38.624 15.8016C35.2518 15.82 31.8796 15.8568 28.5073 15.8661C27.5031 15.8661 26.4988 15.8384 25.4945 15.8108C24.9232 15.7924 24.6099 15.3962 24.6468 14.7973C24.6744 14.2997 25.0522 13.9588 25.5866 13.9588C31.1056 13.9588 36.6247 13.9496 42.1529 13.9404C43.1572 13.9404 44.1615 13.8759 45.1658 13.9035C45.8384 13.922 46.3728 13.6732 46.8519 13.2494C47.5706 12.6136 48.2708 11.9686 48.9895 11.3421C49.1277 11.2223 49.3304 11.1026 49.5055 11.1026C51.9563 11.0841 54.4164 11.0933 56.8672 11.1026C56.9133 11.1026 56.9594 11.121 57.0331 11.1394V30.2763H40.5036C40.909 29.8709 41.2868 29.484 41.683 29.097C41.8396 28.9404 42.0608 28.8482 42.1805 28.6732C42.5399 28.1111 43.0835 28.1295 43.6271 28.1756C43.7561 28.1848 43.9035 28.323 43.9956 28.4428C44.8157 29.4195 46.1148 29.3642 46.8519 28.3138C46.9164 28.2309 47.0638 28.1664 47.1744 28.1664C48.5564 28.1388 49.9293 28.1111 51.3113 28.1111C51.4772 28.1111 51.6799 28.2493 51.7997 28.3875C52.417 29.1062 53.5042 29.2168 54.2045 28.6179C54.9047 28.0098 54.9231 26.8028 54.2413 26.121C53.6424 25.5128 52.3341 25.476 51.8826 26.1947C51.5048 26.7843 51.0626 26.7291 50.5558 26.7291C49.4962 26.7291 48.4459 26.7383 47.3863 26.7291C47.202 26.7291 46.9533 26.6553 46.8611 26.5264C46.0687 25.4668 44.7788 25.4207 43.9219 26.4342C43.8022 26.5816 43.5442 26.7475 43.3967 26.7198C42.1621 26.4803 41.3144 27.0884 40.5036 27.8992C39.7573 28.6363 38.9742 29.3458 38.191 30.0368C38.0251 30.1842 37.7579 30.304 37.5368 30.304C30.2303 30.3132 22.9146 30.3224 15.6081 30.304C13.0743 30.304 10.5313 30.2579 7.99757 30.2487C7.73037 30.2487 7.44474 30.3593 7.19597 30.4791C6.10875 31.0042 5.1321 30.5988 4.8004 29.4655C4.64377 28.9404 4.88332 28.1295 5.2703 27.8623C6.04426 27.328 6.62472 27.328 7.26968 27.7886C7.4816 27.9361 7.77644 28.0466 8.03442 28.0466C17.4232 28.0651 26.812 28.0558 36.2008 28.0743C36.9195 28.0743 37.2235 27.5307 37.6382 27.1621C39.0018 25.9459 40.3101 24.6652 41.6554 23.4398C41.8304 23.2739 42.1345 23.1726 42.374 23.1633C44.6406 23.1449 46.9072 23.1265 49.1738 23.1633C49.7082 23.1633 50.0767 22.9975 50.3992 22.6289C50.5558 22.4539 50.7217 22.2788 50.8599 22.1314V22.159Z" fill="#7CC6F3"/>
<path d="M33.7407 48.0128H35.6388C36.6799 48.0128 37.7211 48.0404 38.753 48.0036C39.2229 47.9851 39.4809 48.1879 39.7757 48.5011C40.7524 49.5423 41.7659 50.5466 42.7702 51.5693C42.8255 51.5324 42.89 51.5048 42.9452 51.4679C42.9452 50.7308 42.9821 49.9937 42.9452 49.2566C42.8347 47.1283 44.5208 44.6406 46.8887 44.143C47.4968 44.014 48.1326 43.9403 48.7499 43.9403C55.6971 43.9219 62.6534 43.9403 69.6006 43.9403C69.7296 43.9403 69.8678 43.9403 70.0428 43.9403V51.6983C70.4114 51.4034 70.7062 51.2007 70.955 50.9428C71.8119 50.0675 72.6503 49.1737 73.5072 48.2984C73.6362 48.1694 73.8389 48.0404 74.014 48.0404C75.7646 48.022 77.5244 48.0312 79.3764 48.0312C74.7234 55.0337 68.4673 59.5115 60.1012 60.4698C47.6535 61.8887 38.2739 55.4299 33.7407 48.0312V48.0128Z" fill="#7CC6F3"/>
<path d="M60.8383 8.04358C60.8383 10.1259 60.8383 12.1345 60.8383 14.1339C60.8383 20.5098 60.8383 26.8765 60.8383 33.2524C60.8383 33.3353 60.8383 33.4182 60.8383 33.5103C60.8383 34.3488 60.8383 34.2935 59.9999 34.2751C58.4335 34.2382 56.8672 34.2659 55.3009 34.2567C52.7487 34.2567 50.1872 34.2382 47.635 34.229C47.3494 34.229 47.0638 34.2843 46.7782 34.2751C46.5847 34.2751 46.3543 34.2382 46.2161 34.1185C45.4975 33.5288 44.8064 32.9022 43.9956 32.202H58.5994V31.5939C58.5994 24.527 58.5994 17.4508 58.6086 10.3839C58.6086 9.87711 58.4428 9.75734 57.9729 9.76655C54.8586 9.78498 51.7352 9.76655 48.6209 9.79419C48.3445 9.79419 48.0404 9.95082 47.8193 10.1167C47.4416 10.3931 47.1467 10.7893 46.7597 11.038C46.5017 11.2131 46.1332 11.3052 45.8199 11.3052C34.7266 11.3145 23.6332 11.3145 12.5399 11.3052C12.199 11.3052 11.9226 11.3329 11.6462 11.6185C11.1671 12.1161 9.80343 12.1161 9.28746 11.3513C8.7807 10.5958 8.93734 9.5362 9.73893 9.04788C10.2733 8.7254 10.8446 8.75304 11.4343 8.98338C11.766 9.11237 12.1253 9.25058 12.4662 9.25058C20.4729 9.25058 28.4797 9.25058 36.4956 9.25058C38.5411 9.25058 40.5773 9.28743 42.6228 9.20451C43.065 9.18608 43.5441 8.77146 43.9219 8.43977C44.2444 8.15414 44.5484 8.04358 44.9631 8.04358C50.0214 8.05279 55.089 8.04358 60.1473 8.04358H60.8568H60.8383Z" fill="#263868"/>
<path d="M29.9353 5.89678C31.0502 5.19654 32.1558 4.93856 33.2707 4.89249C35.611 4.79114 37.9605 4.81878 40.3008 4.70821C40.8075 4.68057 41.3327 4.34888 41.8026 4.07246C44.4562 2.51534 47.2571 1.33598 50.2608 0.700236C51.7719 0.386969 53.3106 0.184267 54.8492 0.0921294C56.4985 -0.00922172 58.1662 -0.0460767 59.8062 0.0921294C63.676 0.433038 67.3246 1.56633 70.7153 3.50121C72.5488 4.55158 74.2442 5.77701 75.8934 7.09457C76.0224 7.19592 76.1422 7.30649 76.2159 7.52762H75.7276C73.7006 7.52762 71.6735 7.52762 69.6465 7.52762C69.3701 7.52762 69.0845 7.44469 68.8357 7.32491C66.3941 6.21927 63.8971 5.33475 61.2436 4.85563C59.0046 4.45023 56.7381 4.44101 54.4991 4.61608C52.5458 4.77271 50.6201 5.33475 48.676 5.7033C48.2522 5.78622 47.8192 5.88757 47.3861 5.88757C41.8026 5.89678 36.2099 5.88757 30.6263 5.88757H29.9353V5.89678Z" fill="#7CC6F3"/>
<path d="M10.4761 14.7881C13.2494 14.7881 16.0228 14.7881 18.7961 14.7881C19.3581 14.7881 19.6069 15.0276 19.6346 15.5989C19.6714 16.2715 19.3858 16.7045 18.833 16.7414C18.3446 16.769 17.8471 16.7414 17.3496 16.7506C12.3004 16.7782 7.24208 16.8059 2.19295 16.8335C1.71384 16.8335 1.27158 16.4926 1.1518 15.9858C1.04123 15.5436 1.19787 15.1658 1.57563 14.9355C1.73226 14.8341 1.95339 14.7973 2.14688 14.7973C4.92022 14.7973 7.69355 14.7973 10.4669 14.7973L10.4761 14.7881Z" fill="#7CC6F3"/>
<path d="M6.36667 24.1953C4.59764 24.1953 2.8286 24.1953 1.05956 24.1953C0.552805 24.1953 0.147401 23.7715 0.128973 23.2279C0.110546 22.6658 0.469882 22.2051 0.976637 22.1591C1.07799 22.1498 1.17934 22.1591 1.28069 22.1591C4.75427 22.1591 8.21863 22.1591 11.6922 22.1591C12.3372 22.1591 12.6781 22.5184 12.6781 23.2094C12.6781 23.836 12.3095 24.2045 11.6738 24.2045C9.90475 24.2045 8.13571 24.2045 6.36667 24.2045V24.1953Z" fill="#7CC6F3"/>
<path d="M20.1873 18.6302C21.4773 18.6302 22.7764 18.6302 24.0663 18.6302C24.5086 18.6302 24.8587 18.7868 25.0522 19.2107C25.2549 19.6529 25.172 20.0583 24.8311 20.3716C24.6468 20.5374 24.3612 20.6572 24.1124 20.6664C22.7027 20.7033 21.293 20.7033 19.8741 20.7125C18.7316 20.7125 17.5891 20.7033 16.4558 20.7125C15.8937 20.7125 15.6358 20.3992 15.4883 19.9201C15.3409 19.4318 15.5344 19.054 15.8845 18.75C15.9675 18.6763 16.1333 18.667 16.2623 18.667C17.5706 18.667 18.879 18.667 20.1873 18.667C20.1873 18.6486 20.1873 18.6394 20.1873 18.621V18.6302Z" fill="#7CC6F3"/>
<path d="M30.525 32.6166C29.9353 33.1879 29.3548 33.7683 28.7467 34.3304C28.6454 34.4225 28.4335 34.4225 28.2768 34.4225C25.7707 34.4225 23.2738 34.4225 20.7676 34.4225C20.095 34.4225 19.8462 34.1645 19.837 33.4643C19.837 32.8193 20.1411 32.4876 20.7768 32.4784C22.3063 32.4784 23.845 32.4784 25.3745 32.4784C27.0698 32.4784 28.7651 32.4784 30.4697 32.4784C30.4881 32.5245 30.5158 32.5706 30.5342 32.6166H30.525Z" fill="#7CC6F3"/>
<path d="M13.4245 35.7493C14.4287 35.7493 15.433 35.7493 16.4373 35.7493C17.0915 35.7493 17.4324 36.081 17.4601 36.726C17.4877 37.3341 17.1007 37.804 16.5111 37.8132C14.438 37.85 12.3557 37.8685 10.2826 37.8685C9.72053 37.8685 9.28748 37.4446 9.21377 36.901C9.14928 36.4311 9.49019 35.8875 9.96009 35.7677C10.1536 35.7217 10.3655 35.7493 10.5682 35.7493C11.5264 35.7493 12.4754 35.7493 13.4337 35.7493H13.4245Z" fill="#7CC6F3"/>
<path d="M15.304 25.8353C14.4655 25.8353 14.1062 25.4299 14.1154 24.5177C14.1154 23.8083 14.6406 23.3937 15.4606 23.366C16.0871 23.3384 16.6953 23.8636 16.7229 24.6007C16.7505 25.3286 16.1424 25.8353 15.3132 25.8353H15.304Z" fill="#7CC6F3"/>
<path d="M89.4563 24.6007C88.3415 24.6007 87.2542 24.6007 86.167 24.6007C83.8175 24.6007 81.468 24.6007 79.1185 24.6099C78.75 24.6099 78.6025 24.5177 78.5104 24.1308C78.1326 22.5736 77.7088 21.0257 77.2758 19.4041C77.9576 19.4041 78.6025 19.4041 79.2383 19.4041C79.5055 19.4041 79.7727 19.4686 80.0399 19.487C81.7352 19.5607 83.4213 19.616 85.1166 19.699C85.9735 19.745 86.8304 19.8279 87.6965 19.9017C87.8163 19.9109 88.0098 20.003 88.0374 20.0951C88.5257 21.5325 89.0048 22.979 89.4747 24.4256C89.484 24.4532 89.4747 24.4901 89.4563 24.5914V24.6007Z" fill="white"/>
<path d="M73.3137 38.2831C73.3321 37.2235 73.6178 36.2468 74.3733 35.4729C75.5711 34.2475 77.3585 34.2843 78.4734 35.5927C79.9845 37.3709 79.6988 39.9231 77.9482 41.3605C76.6767 42.4108 74.9445 42.0515 73.9402 40.4759C73.5164 39.8126 73.2861 39.0755 73.3045 38.2739L73.3137 38.2831ZM75.0643 38.3568C75.0643 38.4213 75.0643 38.495 75.0643 38.5595C75.1196 39.2229 75.5895 39.8402 76.1239 39.9323C76.6122 40.0245 77.2111 39.702 77.4507 39.1952C77.8192 38.4213 77.7455 37.6473 77.2388 36.9655C76.99 36.6338 76.603 36.4772 76.1608 36.6246C75.4697 36.8457 75.0551 37.4815 75.0643 38.3476V38.3568Z" fill="white"/>
<path d="M38.9649 38.4121C38.9557 39.573 38.5595 40.5589 37.6934 41.3697C36.4219 42.5582 34.6898 42.2081 33.7592 40.8721C32.6904 39.3334 32.718 37.3617 33.8882 35.8967C34.7542 34.8187 36.4219 34.4409 37.6013 35.4637C38.5503 36.2837 38.9557 37.1406 38.9649 38.4121ZM35.952 36.7628C35.6756 36.9287 35.3439 37.0484 35.1504 37.2788C34.6713 37.8316 34.6529 38.5042 34.8648 39.1768C35.0214 39.6651 35.3071 40.0245 35.8968 40.0613C36.5233 40.0982 36.8642 39.7573 37.113 39.2597C37.4078 38.6516 37.3065 38.0619 37.0208 37.4815C36.8181 37.0761 36.5049 36.8181 35.952 36.772V36.7628Z" fill="white"/>
<path d="M89.4931 34.745C89.9354 34.8095 90.3316 34.9109 90.737 34.9201C92.0269 34.9385 93.326 34.9201 94.6252 34.9201C94.745 34.9201 94.9016 34.9661 94.9753 34.9017C95.1043 34.8003 95.1964 34.6437 95.2978 34.5055C95.178 34.441 95.0582 34.3212 94.9384 34.312C93.3168 34.3028 91.7044 34.312 90.0828 34.312C89.8709 34.312 89.659 34.3396 89.401 34.358C89.3918 34.2198 89.3826 34.0724 89.3641 33.8881H95.2517C95.4176 33.3169 95.0767 33.28 94.7081 33.28C93.1141 33.3077 91.5109 33.3445 89.917 33.3814C89.7511 33.3814 89.5853 33.3814 89.3918 33.3814V32.8746H95.2149C95.3162 32.3679 95.3162 32.3587 94.8371 32.3587C93.2155 32.3587 91.6031 32.3587 89.9815 32.3587H89.4286C89.3826 31.9533 89.3826 31.9348 89.7327 31.9348C91.0318 31.9348 92.3217 31.944 93.6209 31.9533C94.0079 31.9533 94.404 31.9072 94.791 31.9348C95.2425 31.9625 95.3899 31.7874 95.2425 31.3083H89.4378C89.2444 30.4975 89.7235 29.8433 90.4974 29.8894C91.8703 29.9815 93.2523 29.917 94.6344 29.917C95.3254 29.917 95.7677 30.2856 95.7861 30.9674C95.823 32.1007 95.8138 33.2432 95.7861 34.3765C95.7769 34.9754 95.3623 35.3255 94.7634 35.3255C93.2984 35.3255 91.8334 35.3255 90.3684 35.3255C89.8893 35.3255 89.5761 35.1504 89.4747 34.7266L89.4931 34.745ZM95.2701 30.8384C95.2978 30.7831 95.3254 30.7186 95.3531 30.6633C95.1964 30.5528 95.0398 30.3501 94.8832 30.3501C93.3168 30.3224 91.7505 30.3224 90.1842 30.3501C89.9446 30.3501 89.6313 30.4238 89.6958 30.8476H95.2701V30.8384Z" fill="white"/>
<path d="M76.2622 26.0933C77.3126 26.25 78.3814 26.3329 79.4225 26.5724C81.081 26.9502 82.7303 27.4109 84.3703 27.8716C85.6694 28.2401 86.7843 28.968 87.8715 29.742C87.9729 29.8157 88.0466 29.9907 88.0558 30.1197C88.065 31.769 88.0558 33.4182 88.0558 35.1136H87.1068C87.1068 34.7819 87.1068 34.4318 87.1068 34.0816C87.0884 33.2985 87.1344 32.5061 87.0146 31.7413C86.9594 31.3359 86.7198 30.82 86.3973 30.6081C85.3285 29.9078 84.2137 29.2536 83.0527 28.7285C81.5509 28.0558 79.9846 27.5307 78.4366 26.9594C77.718 26.6922 76.9901 26.4527 76.2622 26.2039C76.2622 26.167 76.2622 26.1394 76.2622 26.1025V26.0933Z" fill="white"/>
<path d="M79.9293 12.4109L71.858 11.9686C73.7008 12.4754 75.1381 13.5165 76.1424 15.1658C76.0503 15.1105 75.9674 15.0645 75.8752 15.0092C75.7831 14.9447 75.691 14.8802 75.562 14.8433C75.7923 15.2027 76.0226 15.5528 76.253 15.9121C73.194 13.3876 69.5822 12.2819 65.7401 11.7291C70.4944 11.4435 75.2395 11.2868 79.9385 12.2819C79.9385 12.328 79.9385 12.3648 79.9385 12.4109H79.9293Z" fill="white"/>
<path d="M69.0847 38.3568C66.9747 39.0755 64.8187 38.7806 62.6719 38.8083C59.7603 38.8451 56.8488 38.8083 53.9373 38.8083C53.624 38.8083 53.1633 38.882 53.1357 38.4766C53.108 38.0343 53.5871 38.1172 53.882 38.0896C54.2874 38.0435 54.6928 38.0159 55.1074 38.0159C58.2585 37.979 61.4004 37.933 64.5515 37.9145C65.6756 37.9145 66.7996 37.9606 67.9145 38.0251C68.2462 38.0435 68.4489 37.9698 68.624 37.6658C68.7898 37.3801 69.0202 37.1406 69.3242 36.7628C69.2321 37.4078 69.1584 37.8869 69.0847 38.366V38.3568Z" fill="white"/>
<path d="M96.3571 37.6658C95.3344 38.4121 94.1458 38.7161 92.9388 39.011C91.4738 39.3611 90.0457 39.1676 88.6083 38.7898C87.171 38.4213 85.706 38.1172 84.2503 37.7855C84.1858 37.7671 84.1305 37.7487 84.0568 37.6289C84.324 37.5828 84.5819 37.5183 84.8491 37.4907C85.1163 37.4631 85.3928 37.4723 85.66 37.4723C89.2165 37.4723 92.773 37.4723 96.3295 37.4723C96.3295 37.5368 96.3387 37.592 96.3479 37.6565L96.3571 37.6658Z" fill="white"/>
<path d="M76.6308 24.4993C75.3132 24.011 74.1247 23.5779 72.9269 23.1357V20.3716C73.7745 20.3716 74.6038 20.3531 75.433 20.39C75.5528 20.39 75.7186 20.6756 75.7647 20.8599C76.0596 22.0208 76.3267 23.191 76.64 24.4993H76.6308Z" fill="white"/>
<path d="M75.0552 38.3568C75.0552 37.4907 75.4698 36.855 76.1608 36.6338C76.6031 36.4956 76.9901 36.6523 77.2388 36.9747C77.7456 37.6566 77.8193 38.4213 77.4507 39.2045C77.2112 39.7112 76.6123 40.0245 76.124 39.9416C75.5896 39.8402 75.1105 39.2321 75.0644 38.5687C75.0644 38.5042 75.0644 38.4305 75.0644 38.366L75.0552 38.3568Z" fill="#263868"/>
<path d="M35.952 36.7536C36.514 36.8089 36.8273 37.0577 37.0208 37.4631C37.2972 38.0343 37.4078 38.6332 37.1129 39.2413C36.8642 39.7388 36.5233 40.0798 35.8967 40.0429C35.307 40.006 35.0214 39.6559 34.8648 39.1584C34.6437 38.4858 34.6713 37.8132 35.1504 37.2604C35.3531 37.03 35.6848 36.9194 35.952 36.7444V36.7536Z" fill="#263868"/>
<path d="M95.2701 30.8384H89.6958C89.6405 30.4145 89.9446 30.3408 90.1841 30.3408C91.7505 30.3224 93.3168 30.3408 94.8831 30.3408C95.3254 30.3408 95.1964 30.5435 95.353 30.6541C95.3254 30.7094 95.2978 30.7739 95.2701 30.8292V30.8384Z" fill="#263868"/>
<path d="M64.6251 45.9673C59.4839 45.9673 54.3334 45.9673 49.1921 45.9673C47.5152 45.9673 46.5938 46.8795 46.6307 48.5103C46.6583 49.8371 46.6031 51.1731 46.6583 52.4999C46.6768 52.9329 46.8242 53.4028 47.0545 53.7714C47.5521 54.5914 48.4274 54.877 49.3027 55.0613C50.5926 55.3469 51.901 55.5865 53.2001 55.7708C53.9833 55.8813 54.7849 55.8721 55.6049 55.9182V53.3107H49.8555V51.2837H54.6927V49.5331H49.8555V47.7548C53.3752 47.7548 56.8487 47.7548 60.3868 47.7548H66.8641V45.9766H64.6436L64.6251 45.9673Z" fill="white"/>
<path d="M57.0884 48.8604V56.2775C58.2309 56.2499 59.355 56.1485 60.4606 55.9458C60.4606 55.8445 60.4606 55.7339 60.4606 55.6233C60.4145 53.366 60.433 51.1178 60.4422 48.8604H57.0976H57.0884Z" fill="white"/>
<path d="M62.1006 48.8604V55.5957C63.2524 55.3008 64.3764 54.9139 65.4544 54.4348C65.4268 52.5736 65.436 50.7216 65.436 48.8604H62.0914H62.1006Z" fill="white"/>
</g>
<defs>
<clipPath id="clip0_77_185">
<rect width="513.27" height="60.6448" fill="white"/>
</clipPath>
</defs>
</svg>
